<?xml version="1.0" encoding="UTF-8"?>
<svg version="1.1" xmlns="http://www.w3.org/2000/svg" width="574" height="280">
<!-- <path d="M0 0 C189.42 0 378.84 0 574 0 C574 92.4 574 184.8 574 280 C384.58 280 195.16 280 0 280 C0 187.6 0 95.2 0 0 Z "  fill="transparent"/> -->
<path d="M0 0 C3.81980702 0.02161136 7.63776614 -0.00000047 11.45751953 -0.02539062 C13.92497153 -0.02274967 16.3924224 -0.01762952 18.85986328 -0.00976562 C19.98199219 -0.01786255 21.10412109 -0.02595947 22.26025391 -0.03430176 C29.11243154 0.04601324 34.75921158 1.15102505 41.1831665 3.55529785 C44.90034454 4.92913756 48.67296912 5.73021594 52.54736328 6.52148438 C54.1205087 6.86287992 55.69342204 7.20534642 57.26611328 7.54882812 C59.99296454 8.13747629 62.72132978 8.71200311 65.45361328 9.27539062 C84.92780591 13.65708397 103.95825164 21.40775547 121.98486328 29.89648438 C123.03536865 30.38375 124.08587402 30.87101562 125.16821289 31.37304688 C126.13251221 31.84226563 127.09681152 32.31148437 128.09033203 32.79492188 C128.93104248 33.20145996 129.77175293 33.60799805 130.63793945 34.02685547 C133.83283744 36.23818 135.47916468 38.79560719 136.18554688 42.62695312 C136.19062256 43.65755859 136.19062256 43.65755859 136.19580078 44.70898438 C136.20184326 45.48411377 136.20788574 46.25924316 136.21411133 47.05786133 C136.20033447 47.87085693 136.18655762 48.68385254 136.17236328 49.52148438 C136.16438721 50.36219482 136.15641113 51.20290527 136.14819336 52.0690918 C135.92951418 61.73618793 134.13424875 69.84771344 129.79736328 78.52148438 C106.69736328 78.52148438 83.59736328 78.52148438 59.79736328 78.52148438 C61.44736328 76.87148437 63.09736328 75.22148437 64.79736328 73.52148438 C65.73014385 72.4055221 66.633601 71.26330787 67.48486328 70.08398438 C67.88060547 69.54902344 68.27634766 69.0140625 68.68408203 68.46289062 C70.13428161 65.9339461 70.90283451 63.28910147 71.79736328 60.52148438 C73.00271729 60.53719482 74.20807129 60.55290527 75.44995117 60.5690918 C79.9432094 60.62359624 84.43643868 60.6579089 88.92993164 60.6862793 C90.87073692 60.70131928 92.81150848 60.72175652 94.75219727 60.74780273 C97.5498896 60.78439733 100.34713061 60.80125886 103.14501953 60.81445312 C104.00571548 60.82993698 104.86641144 60.84542084 105.75318909 60.8613739 C111.20521727 60.86287988 114.97959108 60.1342453 119.79736328 57.52148438 C122.60736375 54.35122744 123.66116943 52.15705569 124.54736328 48.02148438 C123.43893738 42.84883019 120.08011095 41.32124244 115.79736328 38.52148438 C113.15397465 36.96938481 110.4511245 35.6261719 107.67236328 34.33398438 C106.88901611 33.96595703 106.10566895 33.59792969 105.29858398 33.21875 C97.34745073 29.5937366 89.18151069 26.53600908 80.98486328 23.52148438 C80.3258905 23.27806305 79.66691772 23.03464172 78.98797607 22.78384399 C70.07058122 19.48968802 70.07058122 19.48968802 60.79736328 17.52148438 C61.53986328 18.44960937 62.28236328 19.37773437 63.04736328 20.33398438 C70.28643346 30.74917082 71.27241669 42.17789666 69.79736328 54.52148438 C67.79401044 63.13767447 63.81934289 70.09635968 57.79736328 76.52148438 C57.20181641 77.15828125 56.60626953 77.79507813 55.99267578 78.45117188 C46.19693197 87.92174577 33.89104237 89.94962082 20.81298828 89.73242188 C11.62647234 89.38503262 5.0637719 85.93140536 -2.20263672 80.52148438 C-3.06888672 79.94398438 -3.93513672 79.36648437 -4.82763672 78.77148438 C-9.3766597 74.46188365 -14.09252699 68.83158178 -15.20263672 62.52148438 C-12.97823305 64.67908914 -10.99384908 66.95106948 -9.01513672 69.33398438 C-3.83714493 75.2641476 2.15440674 80.26618572 9.79736328 82.52148438 C14.14367419 82.75104305 18.44995409 82.69799573 22.79736328 82.52148438 C22.16830078 82.42351562 21.53923828 82.32554687 20.89111328 82.22460938 C10.0575361 80.33199649 3.7218488 76.07909556 -4.20263672 68.52148438 C-3.87263672 67.86148438 -3.54263672 67.20148438 -3.20263672 66.52148438 C-2.70634766 66.99199219 -2.21005859 67.4625 -1.69873047 67.94726562 C5.26886591 74.3331272 11.06023089 77.25491258 20.66064453 77.00195312 C27.24476563 75.99342648 33.28220499 72.55250711 37.79736328 67.64648438 C42.57328553 60.18410587 43.83954958 53.39803662 42.79736328 44.52148438 C40.70373607 36.76584647 34.66708823 31.80911183 27.96923828 27.84960938 C21.91881435 25.31618063 14.60592784 25.40414525 8.32080078 27.24804688 C6.32410055 28.19628675 4.59402938 29.23695207 2.79736328 30.52148438 C1.18861328 31.66617188 1.18861328 31.66617188 -0.45263672 32.83398438 C-6.11052902 38.36328821 -7.89350408 43.92506999 -9.20263672 51.52148438 C-9.53263672 51.52148438 -9.86263672 51.52148438 -10.20263672 51.52148438 C-9.87003503 40.61214894 -8.28196642 33.28157631 -0.90576172 25.12304688 C6.29477943 18.3518958 14.03581934 16.07928684 23.77783203 16.27148438 C31.84192838 16.93914565 38.74278017 20.79536845 45.79736328 24.52148438 C43.64870781 20.28185545 41.61964104 18.45636869 37.42236328 16.27148438 C36.48650391 15.77132812 35.55064453 15.27117187 34.58642578 14.75585938 C26.21214719 11.04959602 15.56570581 11.22972408 6.98486328 14.14648438 C-3.10232074 18.40386939 -9.56175824 23.64005332 -14.19873047 33.67773438 C-16.51126374 39.78547775 -16.88475842 46.04334383 -17.20263672 52.52148438 C-17.86263672 52.52148438 -18.52263672 52.52148438 -19.20263672 52.52148438 C-19.66818398 42.93896998 -19.50095739 35.29274499 -15.20263672 26.52148438 C-14.58388672 25.24337891 -14.58388672 25.24337891 -13.95263672 23.93945312 C-10.25437569 17.09977151 -5.17864756 12.41094779 0.79736328 7.52148438 C-13.9656585 3.21081218 -32.54544291 6.3949502 -47.33032227 9.1862793 C-48.30783447 9.37037354 -49.28534668 9.55446777 -50.29248047 9.74414062 C-51.14704834 9.91695557 -52.00161621 10.08977051 -52.88208008 10.26782227 C-55.2873606 10.53074562 -56.91678061 10.26212153 -59.20263672 9.52148438 C-39.74852002 1.66253657 -20.8945374 -0.14075864 0 0 Z " fill="#fafafa" transform="translate(407.20263671875,116.478515625)"/>
<path d="M0 0 C0.9609375 1.828125 0.9609375 1.828125 1 4 C0.0390625 6.296875 0.0390625 6.296875 -1.375 8.75 C-3.23366296 12.15170392 -4.22424649 14.43942015 -4.1875 18.3125 C-5 22 -5 22 -7.2734375 23.60546875 C-9.81386405 24.87568203 -12.34369279 25.99725608 -15 27 C-13.14314595 28.85685405 -10.06062071 28.34677463 -7.5625 28.5 C-1.22027534 28.88986233 -1.22027534 28.88986233 1 30 C1.37125 29.1028125 1.37125 29.1028125 1.75 28.1875 C3.22425373 25.60755598 4.4786482 24.56271283 7 23 C12.49721721 21.97567381 17.59060234 22.30482353 22.4375 25.1875 C25.51544158 27.39957301 27.84617175 29.85900046 30 33 C29.67 33.66 29.34 34.32 29 35 C25.83984375 35.4140625 25.83984375 35.4140625 21.9375 35.625 C20.64714844 35.69976562 19.35679687 35.77453125 18.02734375 35.8515625 C17.02832031 35.90054688 16.02929688 35.94953125 15 36 C22.42284183 40.99753409 22.42284183 40.99753409 31 43 C31 44.65 31 46.3 31 48 C31.96486328 47.98428955 31.96486328 47.98428955 32.94921875 47.96826172 C45.06463451 47.79759163 56.9935106 47.6322194 68.97558594 49.65820312 C70.36490315 49.89277188 71.75638195 50.11478036 73.14941406 50.32617188 C91.51169281 53.12921055 109.2299379 58.72698454 127 64 C127 64.33 127 64.66 127 65 C118.32365713 64.53909814 109.69074876 63.90435743 101.046875 63.02734375 C50.98137453 58.05990871 -1.40306737 56.23675197 -51 66 C-51.80824219 66.15194824 -52.61648437 66.30389648 -53.44921875 66.46044922 C-68.52218325 69.31661188 -83.92130774 73.62067345 -97.3203125 81.25 C-97.87460938 81.4975 -98.42890625 81.745 -99 82 C-99.66 81.67 -100.32 81.34 -101 81 C-73.71944954 64.50886339 -44.82186369 57.32526894 -13.6875 51.6875 C-12.76348389 51.51589355 -11.83946777 51.34428711 -10.88745117 51.16748047 C-4.87092827 50.11946567 0.89725948 49.80016629 7 50 C2.23953636 43.6109567 -2.88241351 39.0997397 -10.96923828 37.64599609 C-13.82703728 37.25590883 -16.67738734 36.9308468 -19.55419922 36.71948242 C-22.38821815 36.48647843 -24.58267471 36.25472062 -27.03515625 34.7578125 C-28 33 -28 33 -27.96875 30.75 C-26.44984596 26.43827241 -23.81368592 22.90342108 -21.23828125 19.171875 C-18.97363767 15.80056094 -17.43177039 13.07097795 -17 9 C-43.88998225 9.70670124 -66.2396174 20.49813614 -87.875 35.8125 C-95.87862233 41.41894938 -102.22231015 44.3791943 -112 45 C-111 43 -111 43 -109.23242188 42.359375 C-108.1119043 42.05773437 -108.1119043 42.05773437 -106.96875 41.75 C-101.68759496 40.08138861 -97.85406089 37.35089544 -93.5 34 C-91.9215838 32.82631012 -90.34079782 31.65580133 -88.7578125 30.48828125 C-87.96536133 29.90256348 -87.17291016 29.3168457 -86.35644531 28.71337891 C-67.34401144 14.88937757 -24.19106247 -13.56953862 0 0 Z " fill="#fafafa" transform="translate(261,76)"/>
<path d="M0 0 C0.00257813 0.58265625 0.00515625 1.1653125 0.0078125 1.765625 C0.47474771 11.66465156 4.83418348 19.43029892 11 27 C-36.76681487 27.2167581 -84.52490467 26.6412784 -132.28705597 26.03446198 C-134.92881577 26.00090424 -137.57057841 25.96757804 -140.21234131 25.93426514 C-150.148335 25.80840099 -160.08416456 25.67362992 -170.01990509 25.52918625 C-172.03976645 25.50032484 -174.05964238 25.47287634 -176.07952881 25.4458313 C-179.7731505 25.39527879 -183.46664356 25.33916185 -187.16015625 25.28125 C-188.21103928 25.26770981 -189.2619223 25.25416962 -190.34465027 25.24021912 C-196.93600705 25.12836444 -203.4438334 24.68810668 -210 24 C-210 23.67 -210 23.34 -210 23 C-209.09564461 22.96360916 -209.09564461 22.96360916 -208.17301941 22.92648315 C-173.86003361 21.52833704 -139.72894309 19.33631511 -105.54370117 16.06982422 C-102.86251357 15.81428911 -100.18126569 15.55940356 -97.5 15.3046875 C-96.2300972 15.18366669 -94.9601944 15.06264587 -93.65180969 14.93795776 C-85.45984542 14.1758472 -77.28096168 13.59398132 -69.05859375 13.29684448 C-66.00749097 13.18315174 -63.0664899 13.01173611 -60.05664062 12.48046875 C-55.90746239 11.82826565 -51.84868855 11.90371779 -47.65625 11.9296875 C-45.83462584 11.92110742 -44.01300979 11.91063306 -42.19140625 11.8984375 C-39.34035825 11.88172158 -36.49114401 11.87507863 -33.64013672 11.90039062 C-30.87354326 11.92138219 -28.11018891 11.8981148 -25.34375 11.8671875 C-24.49671509 11.88457977 -23.64968018 11.90197205 -22.77697754 11.91989136 C-19.27269998 11.84873963 -16.93299142 11.79196885 -14.19702148 9.46954346 C-12.60241915 7.64120344 -12.60241915 7.64120344 -11.28918457 5.73880005 C-8.21240528 1.58896448 -5.03860057 0 0 0 Z " fill="#fafafa" transform="translate(383,168)"/>
<path d="M0 0 C1.67352539 -0.01836914 1.67352539 -0.01836914 3.38085938 -0.03710938 C10.18660824 -0.04907027 16.45389743 0.53978372 23.0625 2.1875 C17.59159972 5.25247817 11.336141 5.92695778 5.25 7.125 C4.53216339 7.26834778 3.81432678 7.41169556 3.07473755 7.55938721 C-16.54934112 11.46753762 -36.28589296 14.80000091 -56.00671959 18.17870045 C-58.75040977 18.64906216 -61.49373393 19.12153893 -64.23703766 19.59414864 C-66.15758115 19.92388018 -68.07875565 20.24992955 -69.99993896 20.57591248 C-71.72388885 20.87260582 -71.72388885 20.87260582 -73.48266602 21.17529297 C-74.49184586 21.34737274 -75.5010257 21.51945251 -76.54078674 21.69674683 C-78.93790887 22.07991183 -78.93790887 22.07991183 -80.9375 23.1875 C-104.28889671 27.76074501 -129.29117886 29.14967358 -151.9375 21.1875 C-152.83726562 20.88215332 -153.73703125 20.57680664 -154.6640625 20.26220703 C-165.70113371 16.50110698 -176.4912255 12.3909273 -186.9375 7.1875 C-183.45411296 6.02637099 -182.52135131 6.3943982 -179.10546875 7.48046875 C-178.14906494 7.77920898 -177.19266113 8.07794922 -176.20727539 8.38574219 C-175.19012451 8.71219727 -174.17297363 9.03865234 -173.125 9.375 C-171.02363179 10.03057101 -168.92206989 10.68552151 -166.8203125 11.33984375 C-165.80356445 11.65937012 -164.78681641 11.97889648 -163.73925781 12.30810547 C-158.16834345 14.05666189 -152.59045485 15.71990595 -146.9375 17.1875 C-145.844375 17.4865625 -144.75125 17.785625 -143.625 18.09375 C-117.2753417 24.22686012 -90.1564667 19.76657573 -64.69070435 12.15834045 C-57.10132555 9.90675056 -49.44901098 7.93446955 -41.76855469 6.02001953 C-39.40901776 5.43038242 -37.05219358 4.830623 -34.6953125 4.23046875 C-22.90292245 1.25630346 -12.16677642 0.00700448 0 0 Z " fill="#fafafa" transform="translate(358.9375,158.8125)"/>
<path d="M0 0 C5.55551588 4.62803515 9.2606748 9.71187795 12.44140625 16.1796875 C13.06208984 17.42685547 13.06208984 17.42685547 13.6953125 18.69921875 C18.10902035 28.95686034 17.83546236 39.99937676 14.44140625 50.4921875 C9.43448477 62.78571817 1.68864702 71.6611494 -10.30859375 77.5234375 C-20.61039898 81.81585634 -32.56860209 83.2384527 -43.30859375 79.6171875 C-51.85078112 76.01444678 -59.34831023 71.06135302 -65.55859375 64.1796875 C-65.06359375 63.1896875 -65.06359375 63.1896875 -64.55859375 62.1796875 C-64.15769531 62.62699219 -63.75679688 63.07429688 -63.34375 63.53515625 C-56.17347811 71.1606835 -48.16487614 75.5583045 -37.61328125 76.55078125 C-25.52195688 76.90856375 -15.66669375 75.00367322 -6.12109375 66.9921875 C2.99720151 58.11111618 7.40108367 47.75257819 7.81640625 35.1171875 C7.71297623 25.0385068 4.01827029 15.8772671 -2.4765625 8.1796875 C-10.89221099 0.0956124 -20.90090738 -4.40790946 -32.49609375 -4.1953125 C-33.28733643 -4.18661133 -34.0785791 -4.17791016 -34.89379883 -4.16894531 C-40.54602595 -4.02675092 -45.45430329 -3.39445898 -50.55859375 -0.8203125 C-51.48671875 -0.36785156 -51.48671875 -0.36785156 -52.43359375 0.09375 C-58.26578227 3.18581547 -63.00158562 7.44740982 -67.55859375 12.1796875 C-65.27893831 3.8209509 -57.31486608 -1.08260454 -50.296875 -5.30859375 C-34.03685624 -14.28523749 -14.67852259 -10.4430405 0 0 Z " fill="#fafafa" transform="translate(138.55859375,120.8203125)"/>
<path d="M0 0 C15.92424756 -0.30821124 31.78139901 0.23662572 47.6875 0.9375 C48.68968567 0.98106628 49.69187134 1.02463257 50.72442627 1.06951904 C61.49827721 1.54230918 72.25555109 2.05357136 83 3 C84.00496852 6.01490557 84.10335303 8.04181692 84.0625 11.1875 C84.05347656 12.08855469 84.04445313 12.98960938 84.03515625 13.91796875 C84.02355469 14.60503906 84.01195313 15.29210937 84 16 C82.66666667 14 81.33333333 12 80 10 C77.49722362 9.56100687 77.49722362 9.56100687 74.54052734 9.65942383 C73.39949554 9.65965042 72.25846375 9.65987701 71.08285522 9.66011047 C69.84637238 9.67559433 68.60988953 9.69107819 67.3359375 9.70703125 C66.07359283 9.71127609 64.81124817 9.71552094 63.51065063 9.71989441 C60.15338649 9.73386863 56.79673068 9.76082698 53.43963623 9.79400635 C50.01449852 9.82468648 46.58929799 9.8383953 43.1640625 9.85351562 C36.4425395 9.88665359 29.72130489 9.93690461 23 10 C23.99 10.66 24.98 11.32 26 12 C26.5625 14.3125 26.5625 14.3125 26 17 C23.1875 19.8125 23.1875 19.8125 20 22 C19.01 22 18.02 22 17 22 C17 22.66 17 23.32 17 24 C17.928125 24.0825 18.85625 24.165 19.8125 24.25 C23 25 23 25 24.66943359 26.73266602 C26.21765513 29.37089233 26.40719363 30.98611107 26.4765625 34.02734375 C26.5075 34.98447266 26.5384375 35.94160156 26.5703125 36.92773438 C26.59738281 38.41756836 26.59738281 38.41756836 26.625 39.9375 C26.6762714 41.9050399 26.73084915 43.872497 26.7890625 45.83984375 C26.80662598 46.70988037 26.82418945 47.57991699 26.84228516 48.47631836 C27.003819 51.06110986 27.43552951 53.47516934 28 56 C24.7247077 53.33339034 23.6951753 50.12094594 22.1875 46.25 C18.09107253 36.32593937 13.04031416 31.70202655 4.1953125 25.69921875 C3.10863281 24.85810547 3.10863281 24.85810547 2 24 C2 23.34 2 22.68 2 22 C3.98689731 20.64721885 5.98745218 19.31431695 8 18 C9.67779553 14.64440893 9.60194001 12.73202804 9 9 C6.81693918 6.60457918 4.49894263 4.62415476 1.96875 2.6015625 C1.3190625 2.07304688 0.669375 1.54453125 0 1 C0 0.67 0 0.34 0 0 Z " fill="#fafafa" transform="translate(32,88)"/>
<path d="M0 0 C7.07399675 5.04570034 13.15463972 12.65112834 14.66064453 21.39672852 C15.70256004 32.89643788 13.99904161 41.84636101 7.3125 51.375 C0.55212005 59.21058949 -7.54476273 62.72566025 -17.6953125 63.6484375 C-25.88931696 63.91541008 -32.5535021 62.56106488 -39.6875 58.375 C-40.3475 57.385 -41.0075 56.395 -41.6875 55.375 C-36.6875 57.375 -36.6875 57.375 -34.4609375 58.421875 C-26.52453469 61.14931484 -16.35972309 60.26114382 -8.8359375 56.69921875 C-1.85891853 52.39883797 2.45260091 46.29172597 4.89453125 38.5234375 C6.55860441 29.96979041 5.95223633 21.8014962 1.3125 14.375 C0.72855469 13.43720703 0.72855469 13.43720703 0.1328125 12.48046875 C-4.07535695 6.76582444 -10.03761761 3.56582272 -16.6875 1.375 C-26.3162738 -0.00354576 -34.01446796 1.27499116 -41.87109375 6.953125 C-46.35254742 10.60407074 -49.15131895 14.19696369 -51.6875 19.375 C-52.6875 16.375 -52.6875 16.375 -51.7890625 14.17578125 C-46.32874136 4.97412896 -39.98382759 -1.73395781 -29.578125 -5.00390625 C-19.08343934 -7.25884547 -9.13755982 -5.55662421 0 0 Z " fill="#fafafa" transform="translate(126.6875,129.625)"/>
<path d="M0 0 C-1.79147811 1.86313724 -3.56756695 3.66494292 -5.61328125 5.25 C-10.87414499 9.35603999 -13.85119228 14.16374833 -17 20 C-22.75 19.25 -22.75 19.25 -25 17 C-27.62760462 16.14060736 -30.22839138 15.3711061 -32.89453125 14.65234375 C-33.6789006 14.43558487 -34.46326996 14.21882599 -35.27140808 13.99549866 C-36.93244243 13.53774433 -38.59436207 13.08319224 -40.25708008 12.6315918 C-42.79368265 11.94261109 -45.3276852 11.24469931 -47.86132812 10.54492188 C-49.47641812 10.10103684 -51.09164814 9.65766089 -52.70703125 9.21484375 C-53.46240677 9.00754135 -54.21778229 8.80023895 -54.99604797 8.58665466 C-58.64545262 7.59661347 -62.27922099 6.67888059 -66 6 C-63.43015571 3.43015571 -61.40134082 2.79285073 -57.89453125 2.5 C-54.79304862 2.20176257 -51.75868621 1.81541191 -48.6953125 1.24609375 C-32.93857626 -1.59239785 -15.83061215 -2.92410715 0 0 Z " fill="#fafafa" transform="translate(410,123)"/>
<path d="M0 0 C6.72989393 1.44113507 13.36312092 3.11785843 20 4.9375 C20.93328125 5.18951172 21.8665625 5.44152344 22.828125 5.70117188 C27.17932745 6.88924461 31.48460384 8.13284884 35.75390625 9.58984375 C50.7537185 14.67675105 66.32022114 14.67513279 82 15 C82 15.33 82 15.66 82 16 C80.02 16.33 78.04 16.66 76 17 C77.98 17.66 79.96 18.32 82 19 C82 19.33 82 19.66 82 20 C65.49530406 20.57721147 50.65139155 20.50284064 35 15 C34.10023438 14.69465332 33.20046875 14.38930664 32.2734375 14.07470703 C21.23636629 10.31360698 10.4462745 6.2034273 0 1 C0 0.67 0 0.34 0 0 Z " fill="#fafafa" transform="translate(172,165)"/>
<path d="M0 0 C1.45611677 0.01724 2.91210586 0.05574287 4.3671875 0.11328125 C5.47900391 0.1277832 5.47900391 0.1277832 6.61328125 0.14257812 C12.07378472 0.25737847 12.07378472 0.25737847 13.2421875 1.42578125 C13.82504061 6.85079869 13.69209982 10.9696445 10.2421875 15.42578125 C9.2421875 12.42578125 9.2421875 12.42578125 10.2421875 8.42578125 C5.2921875 8.42578125 0.3421875 8.42578125 -4.7578125 8.42578125 C-5.4178125 7.10578125 -6.0778125 5.78578125 -6.7578125 4.42578125 C-4.95156401 0.82039549 -4.10039021 0.46459723 0 0 Z " fill="#fafafa" transform="translate(326.7578125,107.57421875)"/>

</svg>
