<?xml version="1.0" encoding="UTF-8"?>
<svg version="1.1" xmlns="http://www.w3.org/2000/svg" width="200" height="200">
<path d="M0 0 C0.99904358 -0.00637985 1.99808716 -0.0127597 3.02740479 -0.01933289 C4.66464508 -0.02100212 4.66464508 -0.02100212 6.33496094 -0.02270508 C7.45690857 -0.02603348 8.5788562 -0.02936188 9.73480225 -0.03279114 C12.12235096 -0.03786993 14.50990682 -0.04019917 16.89746094 -0.04003906 C20.51216825 -0.04220212 24.12655866 -0.06028213 27.74121094 -0.0793457 C30.06412657 -0.0822843 32.38704364 -0.08426597 34.70996094 -0.08520508 C35.7771637 -0.09239059 36.84436646 -0.09957611 37.94390869 -0.10697937 C59.78816391 -0.04216245 59.78816391 -0.04216245 66.31933594 6.14526367 C69.26585084 10.71744197 69.50778481 13.46440575 70.31933594 19.14526367 C75.26933594 19.14526367 80.21933594 19.14526367 85.31933594 19.14526367 C86.89798077 24.67052059 87.59566146 28.71317177 87.51464844 34.26635742 C87.51181854 35.01111832 87.50898865 35.75587921 87.506073 36.52320862 C87.49497511 38.87656468 87.46989104 41.22952476 87.44433594 43.58276367 C87.43429266 45.18887792 87.42516918 46.79499821 87.41699219 48.40112305 C87.39507 52.31598663 87.36061355 56.23055827 87.31933594 60.14526367 C88.43493896 60.17031982 89.55054199 60.19537598 90.69995117 60.22119141 C94.82426184 60.31509789 98.94839744 60.41535881 103.07250977 60.51757812 C104.86022864 60.56099067 106.64799068 60.60266096 108.43579102 60.64257812 C110.99996984 60.70012827 113.56393006 60.7638657 116.12792969 60.82885742 C116.93209824 60.84556992 117.73626678 60.86228241 118.56480408 60.87950134 C124.20546423 61.03139197 124.20546423 61.03139197 125.31933594 62.14526367 C125.3919254 64.3316582 125.40307376 66.52026756 125.38183594 68.70776367 C125.3728125 69.90530273 125.36378906 71.1028418 125.35449219 72.33666992 C125.33708984 73.72692383 125.33708984 73.72692383 125.31933594 75.14526367 C122.32925836 76.86263378 120.1903532 77.3944049 116.75366211 77.38818359 C115.85560349 77.39126022 114.95754486 77.39433685 114.03227234 77.39750671 C113.06868301 77.3903212 112.10509369 77.38313568 111.11230469 77.37573242 C109.61416985 77.37504509 109.61416985 77.37504509 108.08576965 77.37434387 C105.97342745 77.37132449 103.86108742 77.36344757 101.7487793 77.35107422 C98.52937853 77.33289099 95.31026694 77.33056417 92.09082031 77.33081055 C90.0354793 77.32589205 87.98014023 77.32006229 85.92480469 77.31323242 C84.96728806 77.3121196 84.00977142 77.31100677 83.02323914 77.30986023 C78.01789407 77.27467254 73.25378078 76.9966157 68.31933594 76.14526367 C67.42183772 73.07699987 67.20221825 70.35256391 67.22167969 67.16088867 C67.22651367 65.7590332 67.22651367 65.7590332 67.23144531 64.32885742 C67.24401367 62.87672852 67.24401367 62.87672852 67.25683594 61.39526367 C67.26134766 60.41170898 67.26585938 59.4281543 67.27050781 58.41479492 C67.28227111 55.99155576 67.2987091 53.56844094 67.31933594 51.14526367 C66.98933594 51.47526367 66.65933594 51.80526367 66.31933594 52.14526367 C55.24255645 61.47307798 36.15830069 58.30184069 22.38305664 58.27563477 C18.96919459 58.27020379 15.55545998 58.27564466 12.14160156 58.28198242 C9.97558565 58.28132284 7.80956981 58.28004417 5.64355469 58.27807617 C4.10945198 58.28111252 4.10945198 58.28111252 2.5443573 58.28421021 C1.60860367 58.28105804 0.67285004 58.27790588 -0.29125977 58.2746582 C-1.53030815 58.27346481 -1.53030815 58.27346481 -2.79438782 58.27224731 C-4.68066406 58.14526367 -4.68066406 58.14526367 -5.68066406 57.14526367 C-5.77954198 55.40143832 -5.80865438 53.65360824 -5.81005859 51.90698242 C-5.81321075 50.78912354 -5.81636292 49.67126465 -5.8196106 48.51953125 C-5.81758636 47.30289795 -5.81556213 46.08626465 -5.81347656 44.83276367 C-5.81443329 43.59357178 -5.81539001 42.35437988 -5.81637573 41.07763672 C-5.8170578 38.45138087 -5.81569944 35.82521734 -5.81103516 33.19897461 C-5.80533787 29.82597653 -5.80861708 26.45305802 -5.81460762 23.08006287 C-5.81908176 19.87262691 -5.81595288 16.66520067 -5.81347656 13.45776367 C-5.81550079 12.24113037 -5.81752502 11.02449707 -5.8196106 9.77099609 C-5.81645844 8.65313721 -5.81330627 7.53527832 -5.81005859 6.38354492 C-5.809263 5.39394775 -5.80846741 4.40435059 -5.80764771 3.38476562 C-5.5763412 -0.69458949 -3.59784513 0.015543 0 0 Z M13.31933594 16.14526367 C13.31933594 24.72526367 13.31933594 33.30526367 13.31933594 42.14526367 C18.94857921 43.55257449 24.41329249 43.32960463 30.19433594 43.33276367 C31.95197266 43.35113281 31.95197266 43.35113281 33.74511719 43.36987305 C34.88078125 43.37180664 36.01644531 43.37374023 37.18652344 43.37573242 C38.21890137 43.37984131 39.2512793 43.3839502 40.31494141 43.38818359 C43.63767571 43.11952435 46.25543032 42.4562224 49.31933594 41.14526367 C51.8766329 37.30931823 51.61408172 34.14878269 51.56933594 29.70776367 C51.57707031 28.94399414 51.58480469 28.18022461 51.59277344 27.39331055 C51.68117253 21.91790273 51.68117253 21.91790273 49.31933594 17.14526367 C45.60984243 15.79176952 41.83312318 16.03211372 37.92871094 16.04760742 C36.87179047 16.04972984 36.87179047 16.04972984 35.79351807 16.05189514 C33.5520801 16.05747434 31.31074351 16.07002294 29.06933594 16.08276367 C27.54589988 16.08778136 26.02246226 16.0923438 24.49902344 16.09643555 C20.77239084 16.10658433 17.04597634 16.12616358 13.31933594 16.14526367 Z " fill="#25B6EA" transform="translate(57.6806640625,53.854736328125)"/>
<path d="M0 0 C2.99332739 0.9977758 3.94766315 1.7522025 6 4 C6.99 3.67 7.98 3.34 9 3 C9 3.66 9 4.32 9 5 C10.134375 4.835 11.26875 4.67 12.4375 4.5 C16.97060294 3.92423916 21.43747238 3.90494734 26 4 C28.21538462 11.38461538 28.21538462 11.38461538 27.125 14.5 C26.75375 14.995 26.3825 15.49 26 16 C23.33333333 16 20.66666667 16 18 16 C16.51693359 16.01740234 16.51693359 16.01740234 15.00390625 16.03515625 C13.30041016 16.04869141 13.30041016 16.04869141 11.5625 16.0625 C10.42941406 16.07410156 9.29632813 16.08570313 8.12890625 16.09765625 C5.5103662 16.01592903 3.50310721 15.63283975 1 15 C-1.21771064 15.85790183 -1.21771064 15.85790183 -3 17 C-3 17.66 -3 18.32 -3 19 C-5.875 18.6875 -5.875 18.6875 -9 18 C-9.66 17.01 -10.32 16.02 -11 15 C-11.763125 15.185625 -12.52625 15.37125 -13.3125 15.5625 C-16 16 -16 16 -19 15 C-19.99 15 -20.98 15 -22 15 C-27.66666667 15 -33.33333333 15 -39 15 C-39.66 13.02 -40.32 11.04 -41 9 C-40.67 8.67 -40.34 8.34 -40 8 C-40.66 7.67 -41.32 7.34 -42 7 C-42 9.64 -42 12.28 -42 15 C-42.99 14.67 -43.98 14.34 -45 14 C-45 11.69 -45 9.38 -45 7 C-45.66 7 -46.32 7 -47 7 C-47 9.64 -47 12.28 -47 15 C-51.29 15 -55.58 15 -60 15 C-62.25 9.375 -62.25 9.375 -61.625 5.1875 C-61.45871094 4.00220703 -61.45871094 4.00220703 -61.2890625 2.79296875 C-61.19367188 2.20128906 -61.09828125 1.60960937 -61 1 C-60.01 1 -59.02 1 -58 1 C-58 4.63 -58 8.26 -58 12 C-55.03 12 -52.06 12 -49 12 C-49 9.69 -49 7.38 -49 5 C-47.68 5 -46.36 5 -45 5 C-44.67 3.68 -44.34 2.36 -44 1 C-42.35 1 -40.7 1 -39 1 C-39 1.66 -39 2.32 -39 3 C-39.99 3 -40.98 3 -42 3 C-38.83650409 4.86131271 -36.52763845 5.24746869 -32.875 5.1875 C-32.00617188 5.18105469 -31.13734375 5.17460937 -30.2421875 5.16796875 C-27.9635455 5.1397507 -27.9635455 5.1397507 -26 4 C-24.02332771 4 -22.04607095 4.00240088 -20.0703125 4.0625 C-17.98388096 4.08579188 -17.98388096 4.08579188 -15.99609375 3.41796875 C-13.50823705 2.89702811 -12.27313321 3.36294584 -9.9375 4.3125 C-9.26589844 4.57675781 -8.59429687 4.84101563 -7.90234375 5.11328125 C-6 6 -6 6 -3 8 C-3.495 6.515 -3.495 6.515 -4 5 C-2.68 4.67 -1.36 4.34 0 4 C0 2.68 0 1.36 0 0 Z M0 6 C1 8 1 8 1 8 Z M3 6 C4 8 4 8 4 8 Z M-36 7 C-32 8 -32 8 -32 8 Z M-25 7 C-21 8 -21 8 -21 8 Z M-14 7 C-14 8.65 -14 10.3 -14 12 C-13.34 12 -12.68 12 -12 12 C-12 11.34 -12 10.68 -12 10 C-11.01 9.67 -10.02 9.34 -9 9 C-9.33 8.34 -9.66 7.68 -10 7 C-11.32 7 -12.64 7 -14 7 Z M-5 9 C-4 11 -4 11 -4 11 Z M-37 10 C-37 10.66 -37 11.32 -37 12 C-36.01 12 -35.02 12 -34 12 C-34 11.34 -34 10.68 -34 10 C-34.99 10 -35.98 10 -37 10 Z M-32 10 C-32.33 10.66 -32.66 11.32 -33 12 C-32.34 12 -31.68 12 -31 12 C-31.33 11.34 -31.66 10.68 -32 10 Z M-9 10 C-8 13 -8 13 -8 13 Z M7 10 C7.33 10.66 7.66 11.32 8 12 C8.33 11.34 8.66 10.68 9 10 C8.34 10 7.68 10 7 10 Z M-25 11 C-21 12 -21 12 -21 12 Z " fill="#141213" transform="translate(149,136)"/>
<path d="M0 0 C0.66 0 1.32 0 2 0 C4.63842176 4.70327357 5.19131138 7.33917966 6 13 C10.95 13 15.9 13 21 13 C22.57864483 18.52525692 23.27632552 22.5679081 23.1953125 28.12109375 C23.1924826 28.86585464 23.18965271 29.61061554 23.18673706 30.37794495 C23.17563917 32.73130101 23.1505551 35.08426109 23.125 37.4375 C23.11495672 39.04361425 23.10583324 40.64973454 23.09765625 42.25585938 C23.07573407 46.17072296 23.04127761 50.0852946 23 54 C24.11560303 54.02505615 25.23120605 54.0501123 26.38061523 54.07592773 C30.5049259 54.16983421 34.6290615 54.27009514 38.75317383 54.37231445 C40.5408927 54.415727 42.32865474 54.45739729 44.11645508 54.49731445 C46.68063391 54.5548646 49.24459412 54.61860203 51.80859375 54.68359375 C52.6127623 54.70030624 53.41693085 54.71701874 54.24546814 54.73423767 C59.88612829 54.88612829 59.88612829 54.88612829 61 56 C61.07258946 58.18639453 61.08373783 60.37500389 61.0625 62.5625 C61.05347656 63.76003906 61.04445313 64.95757812 61.03515625 66.19140625 C61.02355469 67.11824219 61.01195312 68.04507813 61 69 C58.00992242 70.71737011 55.87101727 71.24914123 52.43432617 71.24291992 C51.53626755 71.24599655 50.63820892 71.24907318 49.7129364 71.25224304 C48.74934708 71.24505753 47.78575775 71.23787201 46.79296875 71.23046875 C45.29483391 71.22978142 45.29483391 71.22978142 43.76643372 71.2290802 C41.65409151 71.22606082 39.54175148 71.2181839 37.42944336 71.20581055 C34.21004259 71.18762732 30.990931 71.1853005 27.77148438 71.18554688 C25.71614337 71.18062838 23.6608043 71.17479862 21.60546875 71.16796875 C20.64795212 71.16685593 19.69043549 71.1657431 18.7039032 71.16459656 C13.69855814 71.12940887 8.93444484 70.85135203 4 70 C3.10250178 66.9317362 2.88288232 64.20730024 2.90234375 61.015625 C2.90556641 60.08105469 2.90878906 59.14648438 2.91210938 58.18359375 C2.92048828 57.21550781 2.92886719 56.24742188 2.9375 55.25 C2.94201172 54.26644531 2.94652344 53.28289062 2.95117188 52.26953125 C2.96293517 49.84629209 2.97937316 47.42317727 3 45 C2.67 45.33 2.34 45.66 2 46 C-2.51042761 49.79825483 -5.30037758 51.13895614 -11.1875 51.0625 C-12.08855469 51.05347656 -12.98960938 51.04445312 -13.91796875 51.03515625 C-14.60503906 51.02355469 -15.29210937 51.01195312 -16 51 C-16 50.67 -16 50.34 -16 50 C-13.03 50 -10.06 50 -7 50 C-7 49.34 -7 48.68 -7 48 C-5.515 47.505 -5.515 47.505 -4 47 C-3.67 45.35 -3.34 43.7 -3 42 C-2.01 42 -1.02 42 0 42 C1.8590123 40.42698959 2.90809958 39.18380083 4 37 C4.66 37 5.32 37 6 37 C7.03494323 43.89962155 6.92262562 50.45226555 6.52734375 57.390625 C6.47767456 58.31633301 6.42800537 59.24204102 6.37683105 60.19580078 C6.25463686 62.46407626 6.12893678 64.73209949 6 67 C6.59468582 67.01030746 7.18937164 67.02061493 7.80207825 67.03123474 C13.98250369 67.13927885 20.16278272 67.25387866 26.34301758 67.37231445 C28.65060365 67.41566999 30.95822194 67.4573446 33.26586914 67.49731445 C36.57968867 67.55500183 39.89334597 67.61870092 43.20703125 67.68359375 C44.2414888 67.70030624 45.27594635 67.71701874 46.3417511 67.73423767 C47.3025206 67.75418289 48.2632901 67.77412811 49.25317383 67.79467773 C50.52225334 67.81799416 50.52225334 67.81799416 51.81697083 67.84178162 C54 68 54 68 57 69 C56.814375 68.13375 56.62875 67.2675 56.4375 66.375 C56 63 56 63 57 57 C44.46 57 31.92 57 19 57 C18.13238016 52.66190079 17.85428414 48.77524274 17.8671875 44.3984375 C17.86623077 43.68015778 17.86527405 42.96187805 17.86428833 42.22183228 C17.86361054 40.71071281 17.86543674 39.19959037 17.86962891 37.68847656 C17.87499864 35.37558482 17.8696623 33.06288587 17.86328125 30.75 C17.8639418 29.27864541 17.86522247 27.80729093 17.8671875 26.3359375 C17.86516327 25.64527191 17.86313904 24.95460632 17.86105347 24.24301147 C17.87587176 21.21406623 18.03381815 18.89854555 19 16 C13.72 16.33 8.44 16.66 3 17 C2.67 16.01 2.34 15.02 2 14 C1.34 13.34 0.68 12.68 0 12 C0.33 11.67 0.66 11.34 1 11 C1.21326403 5.3952291 1.21326403 5.3952291 0 0 Z " fill="#32AFDB" transform="translate(122,60)"/>
<path d="M0 0 C5.94 0.33 11.88 0.66 18 1 C18.33 2.32 18.66 3.64 19 5 C19.721875 4.855625 20.44375 4.71125 21.1875 4.5625 C23.03480707 4.19303859 24.88950639 3.85848762 26.75 3.5625 C27.86375 3.2840625 27.86375 3.2840625 29 3 C29.33 2.34 29.66 1.68 30 1 C30.99 1 31.98 1 33 1 C33.495 2.98 33.495 2.98 34 5 C34 4.34 34 3.68 34 3 C34.99 3 35.98 3 37 3 C37 3.66 37 4.32 37 5 C41.62 4.67 46.24 4.34 51 4 C52.60725635 7.21451269 52.05748185 10.43612536 52 14 C38.54166667 17.03897849 38.54166667 17.03897849 33 14 C32.236875 14.825 31.47375 15.65 30.6875 16.5 C28 19 28 19 25 19 C24.67 19.33 24.34 19.66 24 20 C23.67 19.34 23.34 18.68 23 18 C22.2575 18.2475 21.515 18.495 20.75 18.75 C19.8425 18.8325 18.935 18.915 18 19 C17.4225 18.34 16.845 17.68 16.25 17 C14.25209723 14.78104313 14.25209723 14.78104313 11.99609375 14.98828125 C10.43726258 15.20720339 8.88111317 15.44600775 7.328125 15.703125 C4.0276231 16.12399437 1.25329501 15.62297139 -2 15 C-2 14.34 -2 13.68 -2 13 C-1.34 13 -0.68 13 0 13 C-0.17402344 12.43796875 -0.34804688 11.8759375 -0.52734375 11.296875 C-1.31921647 7.44876626 -0.51271225 3.87382586 0 0 Z M2 4 C2 6.64 2 9.28 2 12 C4.64 12 7.28 12 10 12 C10 9.69 10 7.38 10 5 C7.36 4.67 4.72 4.34 2 4 Z M14 4 C15 6 15 6 15 6 Z M29 5 C29 6.65 29 8.3 29 10 C29.33 10 29.66 10 30 10 C30 8.35 30 6.7 30 5 C29.67 5 29.34 5 29 5 Z M11 6 C12 9 12 9 12 9 Z M14 7 C14 8.65 14 10.3 14 12 C14.33 12 14.66 12 15 12 C15 10.35 15 8.7 15 7 C14.67 7 14.34 7 14 7 Z M22 7 C21.67 8.32 21.34 9.64 21 11 C23.475 11.495 23.475 11.495 26 12 C25.73323796 10.01508358 25.73323796 10.01508358 25 8 C24.01 7.67 23.02 7.34 22 7 Z M45 7 C49 8 49 8 49 8 Z M37 9 C37 9.33 37 9.66 37 10 C38.65 10 40.3 10 42 10 C42 9.67 42 9.34 42 9 C40.35 9 38.7 9 37 9 Z M45 10 C44.67 10.66 44.34 11.32 44 12 C45.65 12 47.3 12 49 12 C48.67 11.34 48.34 10.68 48 10 C47.01 10 46.02 10 45 10 Z M29 11 C30 14 30 14 30 14 Z " fill="#191718" transform="translate(26,136)"/>
<path d="M0 0 C0.99904358 -0.00637985 1.99808716 -0.0127597 3.02740479 -0.01933289 C4.66464508 -0.02100212 4.66464508 -0.02100212 6.33496094 -0.02270508 C7.45690857 -0.02603348 8.5788562 -0.02936188 9.73480225 -0.03279114 C12.12235096 -0.03786993 14.50990682 -0.04019917 16.89746094 -0.04003906 C20.51216825 -0.04220212 24.12655866 -0.06028213 27.74121094 -0.0793457 C30.06412657 -0.0822843 32.38704364 -0.08426597 34.70996094 -0.08520508 C35.7771637 -0.09239059 36.84436646 -0.09957611 37.94390869 -0.10697937 C57.81415326 -0.0480198 57.81415326 -0.0480198 62.69195557 4.2224884 C63.22899109 4.85700424 63.76602661 5.49152008 64.31933594 6.14526367 C62.52727046 6.00441572 60.73568677 5.85742666 58.94433594 5.70776367 C57.94660156 5.62655273 56.94886719 5.5453418 55.92089844 5.46166992 C53.31933594 5.14526367 53.31933594 5.14526367 51.31933594 4.14526367 C49.40340198 3.99059863 47.48254317 3.89524539 45.56152344 3.82885742 C44.38517334 3.78680176 43.20882324 3.74474609 41.99682617 3.70141602 C40.74200439 3.66226074 39.48718262 3.62310547 38.19433594 3.58276367 C36.92726807 3.54103027 35.6602002 3.49929687 34.35473633 3.45629883 C19.1532669 2.17674567 19.1532669 2.17674567 4.31933594 4.14526367 C2.31972029 4.18447182 0.31884229 4.18969715 -1.68066406 4.14526367 C-1.67542725 4.80196045 -1.67019043 5.45865723 -1.66479492 6.13525391 C-1.5528071 22.50106955 -1.88347299 38.7986063 -2.68066406 55.14526367 C6.72485356 56.27555687 16.05321116 56.26192453 25.50683594 56.20776367 C27.04654801 56.20273564 28.58626169 56.19817505 30.12597656 56.1940918 C33.85713022 56.18319631 37.58822248 56.16600449 41.31933594 56.14526367 C40.82433594 57.13526367 40.82433594 57.13526367 40.31933594 58.14526367 C33.92896363 58.17053429 27.53860411 58.18809684 21.14819336 58.20019531 C18.97240721 58.20523675 16.79662447 58.21206974 14.62084961 58.22070312 C11.50080527 58.23277705 8.38080555 58.23849372 5.26074219 58.24291992 C3.79200401 58.25066185 3.79200401 58.25066185 2.29359436 58.25856018 C1.39273605 58.25863571 0.49187775 58.25871124 -0.4362793 58.25878906 C-1.23347885 58.26100967 -2.03067841 58.26323029 -2.85203552 58.26551819 C-4.68066406 58.14526367 -4.68066406 58.14526367 -5.68066406 57.14526367 C-5.77954198 55.40143832 -5.80865438 53.65360824 -5.81005859 51.90698242 C-5.81321075 50.78912354 -5.81636292 49.67126465 -5.8196106 48.51953125 C-5.81758636 47.30289795 -5.81556213 46.08626465 -5.81347656 44.83276367 C-5.81443329 43.59357178 -5.81539001 42.35437988 -5.81637573 41.07763672 C-5.8170578 38.45138087 -5.81569944 35.82521734 -5.81103516 33.19897461 C-5.80533787 29.82597653 -5.80861708 26.45305802 -5.81460762 23.08006287 C-5.81908176 19.87262691 -5.81595288 16.66520067 -5.81347656 13.45776367 C-5.81550079 12.24113037 -5.81752502 11.02449707 -5.8196106 9.77099609 C-5.81645844 8.65313721 -5.81330627 7.53527832 -5.81005859 6.38354492 C-5.809263 5.39394775 -5.80846741 4.40435059 -5.80764771 3.38476562 C-5.5763412 -0.69458949 -3.59784513 0.015543 0 0 Z " fill="#3FB2D9" transform="translate(57.6806640625,53.854736328125)"/>
<path d="M0 0 C2.06091892 -0.00218884 4.12130456 -0.0203571 6.18212891 -0.03930664 C7.47505859 -0.04124023 8.76798828 -0.04317383 10.10009766 -0.04516602 C11.29183594 -0.0492749 12.48357422 -0.05338379 13.71142578 -0.05761719 C16.56884766 0.18530273 16.56884766 0.18530273 18.56884766 2.18530273 C18.76416016 4.56811523 18.76416016 4.56811523 18.69384766 7.31030273 C18.67580078 8.22038086 18.65775391 9.13045898 18.63916016 10.06811523 C18.61595703 10.76678711 18.59275391 11.46545898 18.56884766 12.18530273 C15.71877635 13.61033839 13.28264511 13.31510309 10.10009766 13.31811523 C8.16070312 13.32004883 8.16070312 13.32004883 6.18212891 13.32202148 C5.50746582 13.31992676 4.83280273 13.31783203 4.13769531 13.31567383 C2.07691076 13.31032367 0.01634416 13.31562308 -2.04443359 13.32202148 C-3.33736328 13.32073242 -4.63029297 13.31944336 -5.96240234 13.31811523 C-7.15414063 13.3169873 -8.34587891 13.31585938 -9.57373047 13.31469727 C-12.43115234 13.18530273 -12.43115234 13.18530273 -14.43115234 12.18530273 C-14.43115234 8.55530273 -14.43115234 4.92530273 -14.43115234 1.18530273 C-10.20200391 -0.92927148 -4.65215428 -0.00055555 0 0 Z " fill="#44B2D5" transform="translate(30.43115234375,87.814697265625)"/>
<path d="M0 0 C1.29349365 0.00523682 2.5869873 0.01047363 3.91967773 0.01586914 C4.9496714 0.01799156 4.9496714 0.01799156 6.00047302 0.02015686 C8.20144949 0.0257706 10.40232557 0.03832532 12.60327148 0.05102539 C14.09220231 0.05603863 15.58113473 0.06060184 17.07006836 0.06469727 C20.72700223 0.07574446 24.38387707 0.09301826 28.04077148 0.11352539 C29.23060209 2.49318659 29.17427114 4.02838274 29.16577148 6.67602539 C29.16963867 7.88452148 29.16963867 7.88452148 29.17358398 9.11743164 C29.04077148 11.11352539 29.04077148 11.11352539 28.04077148 12.11352539 C25.76129357 12.21373469 23.47870014 12.24433842 21.19702148 12.24633789 C20.51273071 12.24729462 19.82843994 12.24825134 19.12341309 12.24923706 C17.67415271 12.24991869 16.2248893 12.24806562 14.77563477 12.24389648 C12.55014221 12.23854791 10.32485148 12.24384199 8.09936523 12.25024414 C6.69441687 12.24958336 5.28946863 12.24830219 3.88452148 12.24633789 C2.59739258 12.24520996 1.31026367 12.24408203 -0.01586914 12.24291992 C-2.95922852 12.11352539 -2.95922852 12.11352539 -3.95922852 11.11352539 C-4.05746789 9.44923488 -4.08896482 7.78070608 -4.08422852 6.11352539 C-4.08680664 5.20602539 -4.08938477 4.29852539 -4.09204102 3.36352539 C-3.88874966 -0.08046938 -3.51328843 0.13478089 0 0 Z " fill="#4DAED2" transform="translate(19.959228515625,65.886474609375)"/>
<path d="M0 0 C0.66 0 1.32 0 2 0 C4.63842176 4.70327357 5.19131138 7.33917966 6 13 C10.95 13 15.9 13 21 13 C22.53273193 18.36456175 23.24576452 21.31760719 23.1953125 26.58984375 C23.18886719 27.78544922 23.18242187 28.98105469 23.17578125 30.21289062 C23.15902344 31.44201172 23.14226562 32.67113281 23.125 33.9375 C23.11597656 35.19369141 23.10695312 36.44988281 23.09765625 37.74414062 C23.07419249 40.82962522 23.04136201 43.91471205 23 47 C22.34 47 21.68 47 21 47 C21 49.97 21 52.94 21 56 C33.54 56 46.08 56 59 56 C59 60.29 59 64.58 59 69 C58.34 69 57.68 69 57 69 C55.99998997 64.33328651 56.17216856 61.96698865 57 57 C44.46 57 31.92 57 19 57 C18.13238016 52.66190079 17.85428414 48.77524274 17.8671875 44.3984375 C17.86575241 43.32101791 17.86575241 43.32101791 17.86428833 42.22183228 C17.86361054 40.71071281 17.86543674 39.19959037 17.86962891 37.68847656 C17.87499864 35.37558482 17.8696623 33.06288587 17.86328125 30.75 C17.8639418 29.27864541 17.86522247 27.80729093 17.8671875 26.3359375 C17.86516327 25.64527191 17.86313904 24.95460632 17.86105347 24.24301147 C17.87587176 21.21406623 18.03381815 18.89854555 19 16 C13.72 16.33 8.44 16.66 3 17 C2.67 16.01 2.34 15.02 2 14 C1.34 13.34 0.68 12.68 0 12 C0.33 11.67 0.66 11.34 1 11 C1.21326403 5.3952291 1.21326403 5.3952291 0 0 Z " fill="#36B8DF" transform="translate(122,60)"/>
<path d="M0 0 C0.99904358 -0.00637985 1.99808716 -0.0127597 3.02740479 -0.01933289 C4.66464508 -0.02100212 4.66464508 -0.02100212 6.33496094 -0.02270508 C7.45690857 -0.02603348 8.5788562 -0.02936188 9.73480225 -0.03279114 C12.12235096 -0.03786993 14.50990682 -0.04019917 16.89746094 -0.04003906 C20.51216825 -0.04220212 24.12655866 -0.06028213 27.74121094 -0.0793457 C30.06412657 -0.0822843 32.38704364 -0.08426597 34.70996094 -0.08520508 C35.7771637 -0.09239059 36.84436646 -0.09957611 37.94390869 -0.10697937 C57.81415326 -0.0480198 57.81415326 -0.0480198 62.69195557 4.2224884 C63.22899109 4.85700424 63.76602661 5.49152008 64.31933594 6.14526367 C62.52727046 6.00441572 60.73568677 5.85742666 58.94433594 5.70776367 C57.94660156 5.62655273 56.94886719 5.5453418 55.92089844 5.46166992 C53.31933594 5.14526367 53.31933594 5.14526367 51.31933594 4.14526367 C49.85174191 3.99918597 48.37837459 3.90901422 46.90478516 3.84814453 C45.98978241 3.80817856 45.07477966 3.76821259 44.13204956 3.72703552 C43.13940094 3.68844925 42.14675232 3.64986298 41.12402344 3.61010742 C40.10261261 3.56713028 39.08120178 3.52415314 38.02883911 3.47987366 C35.86176202 3.38955554 33.69459228 3.30143831 31.52734375 3.21533203 C28.22862558 3.08412752 24.93023401 2.94636991 21.63183594 2.80737305 C19.52508111 2.72039583 17.4183107 2.63379539 15.31152344 2.54760742 C14.3310202 2.50699692 13.35051697 2.46638641 12.34030151 2.42454529 C11.4063858 2.38773148 10.47247009 2.35091766 9.51025391 2.31298828 C8.29352493 2.26421791 8.29352493 2.26421791 7.05221558 2.21446228 C3.47566103 2.12390118 -0.10296316 2.14526367 -3.68066406 2.14526367 C-4.01066406 20.29526367 -4.34066406 38.44526367 -4.68066406 57.14526367 C-5.01066406 57.14526367 -5.34066406 57.14526367 -5.68066406 57.14526367 C-5.70379322 49.86104819 -5.72158207 42.57684057 -5.73247623 35.29259586 C-5.73770381 31.91054555 -5.74479917 28.52852027 -5.75610352 25.14648438 C-5.76900673 21.2619659 -5.7738933 17.37745771 -5.77832031 13.49291992 C-5.7834816 12.27314957 -5.78864288 11.05337921 -5.79396057 9.79664612 C-5.7940361 8.67555954 -5.79411163 7.55447296 -5.79418945 6.39941406 C-5.79641006 5.40680069 -5.79863068 4.41418732 -5.80091858 3.39149475 C-5.58211889 -0.69545915 -3.60198628 0.01556089 0 0 Z " fill="#49ACCD" transform="translate(57.6806640625,53.854736328125)"/>
<path d="M0 0 C1.54573264 0.02679053 3.09173157 0.04117415 4.63769531 0.04296875 C6.87575206 0.04607318 9.11021486 0.08785638 11.34765625 0.13793945 C12.37758194 0.12900414 12.37758194 0.12900414 13.42831421 0.11988831 C16.19712035 0.21689616 18.34363594 0.46606997 20.4982605 2.28671265 C24.16325309 6.57169416 25.43922907 10.47577919 25.94921875 15.9777832 C25.57421875 19.5402832 25.57421875 19.5402832 24.94921875 21.9777832 C24.28921875 21.9777832 23.62921875 21.9777832 22.94921875 21.9777832 C22.88863281 21.08575195 22.82804687 20.1937207 22.765625 19.2746582 C22.68183594 18.10418945 22.59804687 16.9337207 22.51171875 15.7277832 C22.43050781 14.56762695 22.34929687 13.4074707 22.265625 12.2121582 C22.01367955 8.81932754 22.01367955 8.81932754 20.94921875 4.9777832 C9.39921875 4.9777832 -2.15078125 4.9777832 -14.05078125 4.9777832 C-14.38078125 13.2277832 -14.71078125 21.4777832 -15.05078125 29.9777832 C-15.71078125 30.3077832 -16.37078125 30.6377832 -17.05078125 30.9777832 C-17.05078125 21.0777832 -17.05078125 11.1777832 -17.05078125 0.9777832 C-11.64773903 -0.82323087 -5.65696088 -0.11705299 0 0 Z " fill="#42A6C9" transform="translate(86.05078125,66.022216796875)"/>
<path d="M0 0 C1.12591553 0.00523682 2.25183105 0.01047363 3.41186523 0.01586914 C4.62680664 0.0190918 5.84174805 0.02231445 7.09350586 0.02563477 C8.37290039 0.03401367 9.65229492 0.04239258 10.97045898 0.05102539 C12.2537207 0.05553711 13.53698242 0.06004883 14.85913086 0.06469727 C18.04211921 0.07652994 21.22501661 0.09301471 24.40795898 0.11352539 C24.40795898 2.42352539 24.40795898 4.73352539 24.40795898 7.11352539 C15.16795898 7.11352539 5.92795898 7.11352539 -3.59204102 7.11352539 C-3.59204102 0.15732307 -3.59204102 0.15732307 0 0 Z " fill="#28B4E7" transform="translate(23.592041015625,67.886474609375)"/>
<path d="M0 0 C0.77923828 0.00451172 1.55847656 0.00902344 2.36132812 0.01367188 C4.26175268 0.02533092 6.16213706 0.04326123 8.0625 0.0625 C8.0625 2.3725 8.0625 4.6825 8.0625 7.0625 C-0.5175 7.0625 -9.0975 7.0625 -17.9375 7.0625 C-17.9375 6.0725 -17.9375 5.0825 -17.9375 4.0625 C-17.2775 4.0625 -16.6175 4.0625 -15.9375 4.0625 C-15.9375 3.0725 -15.9375 2.0825 -15.9375 1.0625 C-10.57260405 0.15766363 -5.43432543 -0.06053662 0 0 Z " fill="#27B5E9" transform="translate(38.9375,90.9375)"/>
<path d="M0 0 C0.66 0 1.32 0 2 0 C2 2.31 2 4.62 2 7 C3.11560303 7.02505615 4.23120605 7.0501123 5.38061523 7.07592773 C9.5049259 7.16983421 13.6290615 7.27009514 17.75317383 7.37231445 C19.5408927 7.415727 21.32865474 7.45739729 23.11645508 7.49731445 C25.68063391 7.5548646 28.24459412 7.61860203 30.80859375 7.68359375 C31.6127623 7.70030624 32.41693085 7.71701874 33.24546814 7.73423767 C38.88612829 7.88612829 38.88612829 7.88612829 40 9 C40.07258946 11.18639453 40.08373783 13.37500389 40.0625 15.5625 C40.05347656 16.76003906 40.04445312 17.95757812 40.03515625 19.19140625 C40.02355469 20.11824219 40.01195312 21.04507813 40 22 C37.08175756 23.66674321 35.02405621 24.2432008 31.671875 24.1953125 C30.87265625 24.18886719 30.0734375 24.18242187 29.25 24.17578125 C28.425 24.15902344 27.6 24.14226562 26.75 24.125 C25.90953125 24.11597656 25.0690625 24.10695312 24.203125 24.09765625 C22.13529396 24.07415817 20.06761005 24.03828908 18 24 C20 22 20 22 21.87939453 21.77294922 C22.62302246 21.78342285 23.36665039 21.79389648 24.1328125 21.8046875 C24.93847656 21.81113281 25.74414062 21.81757813 26.57421875 21.82421875 C27.83685547 21.84935547 27.83685547 21.84935547 29.125 21.875 C30.39923828 21.88853516 30.39923828 21.88853516 31.69921875 21.90234375 C33.79959884 21.92594353 35.89983444 21.96181517 38 22 C38 17.71 38 13.42 38 9 C25.46 9 12.92 9 0 9 C0 6.03 0 3.06 0 0 Z " fill="#62AECA" transform="translate(143,107)"/>
<path d="M0 0 C0.33 0 0.66 0 1 0 C1 10.23 1 20.46 1 31 C3.64 31.33 6.28 31.66 9 32 C9 32.33 9 32.66 9 33 C6.03 33 3.06 33 0 33 C-0.83378093 29.66487626 -1.11814364 27.37555768 -1.09765625 24.015625 C-1.09443359 23.08105469 -1.09121094 22.14648438 -1.08789062 21.18359375 C-1.07951172 20.21550781 -1.07113281 19.24742188 -1.0625 18.25 C-1.05798828 17.26644531 -1.05347656 16.28289062 -1.04882812 15.26953125 C-1.03706483 12.84629209 -1.02062684 10.42317727 -1 8 C-1.33 8.33 -1.66 8.66 -2 9 C-6.51042761 12.79825483 -9.30037758 14.13895614 -15.1875 14.0625 C-16.53908203 14.04896484 -16.53908203 14.04896484 -17.91796875 14.03515625 C-18.60503906 14.02355469 -19.29210937 14.01195313 -20 14 C-20 13.67 -20 13.34 -20 13 C-17.03 13 -14.06 13 -11 13 C-11 12.34 -11 11.68 -11 11 C-10.01 10.67 -9.02 10.34 -8 10 C-7.67 8.35 -7.34 6.7 -7 5 C-6.01 5 -5.02 5 -4 5 C-2.1409877 3.42698959 -1.09190042 2.18380083 0 0 Z " fill="#5DB7D9" transform="translate(126,97)"/>
<path d="M0 0 C1.32 0 2.64 0 4 0 C6.21538462 7.38461538 6.21538462 7.38461538 5.125 10.5 C4.75375 10.995 4.3825 11.49 4 12 C-1.42908305 12 -5.77570142 11.70977045 -11 10 C-11.66 9.34 -12.32 8.68 -13 8 C-11.88625 7.690625 -10.7725 7.38125 -9.625 7.0625 C-6.2054845 6.17673517 -6.2054845 6.17673517 -4 5 C-3.67 4.34 -3.34 3.68 -3 3 C-2.01 2.67 -1.02 2.34 0 2 C0 1.34 0 0.68 0 0 Z " fill="#191516" transform="translate(171,140)"/>
<path d="M0 0 C0.66 0 1.32 0 2 0 C4.63842176 4.70327357 5.19131138 7.33917966 6 13 C10.95 13 15.9 13 21 13 C21.33 14.32 21.66 15.64 22 17 C15.73 17 9.46 17 3 17 C2.67 16.01 2.34 15.02 2 14 C1.34 13.34 0.68 12.68 0 12 C0.33 11.67 0.66 11.34 1 11 C1.21326403 5.3952291 1.21326403 5.3952291 0 0 Z " fill="#2CB7E7" transform="translate(122,60)"/>
<path d="M0 0 C0.66 0.33 1.32 0.66 2 1 C1.4024765 6.3777115 1.4024765 6.3777115 -0.0871582 8.6809082 C-2.98479516 10.67911273 -5.902372 10.36966893 -9.29296875 10.29296875 C-10.35201164 10.28660149 -10.35201164 10.28660149 -11.43244934 10.28010559 C-13.68452303 10.26333034 -15.93569742 10.22568243 -18.1875 10.1875 C-19.71548185 10.17245157 -21.24347776 10.15876344 -22.77148438 10.14648438 C-26.51466872 10.11343089 -30.25718196 10.06165832 -34 10 C-34 9.34 -34 8.68 -34 8 C-33.24380371 7.98018066 -32.48760742 7.96036133 -31.70849609 7.93994141 C-28.26366282 7.84435428 -24.81940799 7.73481109 -21.375 7.625 C-20.18519531 7.5940625 -18.99539062 7.563125 -17.76953125 7.53125 C-16.61582031 7.49257812 -15.46210937 7.45390625 -14.2734375 7.4140625 C-13.21560059 7.3826416 -12.15776367 7.3512207 -11.06787109 7.31884766 C-7.76314478 6.97538334 -5.05983387 6.29281725 -2 5 C-0.56076801 2.49004504 -0.56076801 2.49004504 0 0 Z " fill="#45AFD3" transform="translate(109,89)"/>
<path d="M0 0 C1.54573264 0.02679053 3.09173157 0.04117415 4.63769531 0.04296875 C6.87575206 0.04607318 9.11021486 0.08785638 11.34765625 0.13793945 C12.37758194 0.12900414 12.37758194 0.12900414 13.42831421 0.11988831 C16.19712035 0.21689616 18.34363594 0.46606997 20.4982605 2.28671265 C24.16325309 6.57169416 25.43922907 10.47577919 25.94921875 15.9777832 C25.57421875 19.5402832 25.57421875 19.5402832 24.94921875 21.9777832 C24.28921875 21.9777832 23.62921875 21.9777832 22.94921875 21.9777832 C22.88863281 21.08575195 22.82804687 20.1937207 22.765625 19.2746582 C22.68183594 18.10418945 22.59804687 16.9337207 22.51171875 15.7277832 C22.43050781 14.56762695 22.34929687 13.4074707 22.265625 12.2121582 C22.01674088 9.66800944 21.66806933 7.41825072 20.94921875 4.9777832 C20.28921875 4.9777832 19.62921875 4.9777832 18.94921875 4.9777832 C18.45421875 3.9877832 18.45421875 3.9877832 17.94921875 2.9777832 C6.72921875 2.9777832 -4.49078125 2.9777832 -16.05078125 2.9777832 C-16.38078125 2.3177832 -16.71078125 1.6577832 -17.05078125 0.9777832 C-11.64773903 -0.82323087 -5.65696088 -0.11705299 0 0 Z " fill="#31B1DF" transform="translate(86.05078125,66.022216796875)"/>
<path d="M0 0 C1.32 0.66 2.64 1.32 4 2 C3.67 2.66 3.34 3.32 3 4 C2.95977609 6.3329866 2.95679753 8.66706666 3 11 C4.98 11.66 6.96 12.32 9 13 C9 13.66 9 14.32 9 15 C1.57142857 16.28571429 1.57142857 16.28571429 -2 15 C-2 14.34 -2 13.68 -2 13 C-1.34 13 -0.68 13 0 13 C-0.17402344 12.43796875 -0.34804688 11.8759375 -0.52734375 11.296875 C-1.05053346 8.75443245 -0.90204838 6.81547663 -0.5625 4.25 C-0.46066406 3.45078125 -0.35882812 2.6515625 -0.25390625 1.828125 C-0.17011719 1.22484375 -0.08632813 0.6215625 0 0 Z " fill="#100F12" transform="translate(26,136)"/>
<path d="M0 0 C0 0.33 0 0.66 0 1 C-0.89203125 1.06058594 -1.7840625 1.12117187 -2.703125 1.18359375 C-4.45882812 1.30927734 -4.45882812 1.30927734 -6.25 1.4375 C-7.41015625 1.51871094 -8.5703125 1.59992188 -9.765625 1.68359375 C-12.792728 1.88376915 -12.792728 1.88376915 -14.82226562 2.51367188 C-17.61556011 3.13746589 -20.2164304 3.11168416 -23.078125 3.09765625 C-24.23828125 3.09443359 -25.3984375 3.09121094 -26.59375 3.08789062 C-27.8003125 3.07951172 -29.006875 3.07113281 -30.25 3.0625 C-31.47203125 3.05798828 -32.6940625 3.05347656 -33.953125 3.04882812 C-36.96879946 3.03704815 -39.98437498 3.02059853 -43 3 C-41 1 -41 1 -38.85546875 0.83984375 C-37.97503906 0.87207031 -37.09460938 0.90429688 -36.1875 0.9375 C-32.03511676 1.01828567 -28.01067422 0.87975373 -23.875 0.5 C-15.91671442 -0.1815902 -7.97954554 -0.08600708 0 0 Z " fill="#38C3E0" transform="translate(176,128)"/>
<path d="M0 0 C10.56 0 21.12 0 32 0 C32 4.29 32 8.58 32 13 C31.34 13 30.68 13 30 13 C28.99998997 8.33328651 29.17216856 5.96698865 30 1 C20.1 1 10.2 1 0 1 C0 0.67 0 0.34 0 0 Z " fill="#38AED8" transform="translate(149,116)"/>
<path d="M0 0 C0.63808594 0.15597656 1.27617188 0.31195313 1.93359375 0.47265625 C2.75988281 0.66730469 3.58617187 0.86195312 4.4375 1.0625 C5.26121094 1.25972656 6.08492187 1.45695312 6.93359375 1.66015625 C7.61550781 1.77230469 8.29742187 1.88445312 9 2 C9.33 1.67 9.66 1.34 10 1 C12.53049402 0.92686433 15.03304837 0.90752473 17.5625 0.9375 C18.27341797 0.94201172 18.98433594 0.94652344 19.71679688 0.95117188 C21.47790013 0.96299136 23.23896036 0.98092737 25 1 C25 1.66 25 2.32 25 3 C21.79273298 3.2276125 18.5843177 3.42860225 15.375 3.625 C14.47136719 3.68945312 13.56773438 3.75390625 12.63671875 3.8203125 C7.60433074 4.11417457 3.72809683 4.05774314 -1 2 C-0.67 1.34 -0.34 0.68 0 0 Z " fill="#30B2E3" transform="translate(56,107)"/>
<path d="M0 0 C0.66 0.33 1.32 0.66 2 1 C2 1.66 2 2.32 2 3 C1.34 3 0.68 3 0 3 C-0.309375 3.8971875 -0.309375 3.8971875 -0.625 4.8125 C-2.63843195 8.01568719 -4.43830904 8.72796751 -8 10 C-11.35052235 10.23503664 -14.64783353 10.17887054 -18 10 C-18 9.67 -18 9.34 -18 9 C-15.03 9 -12.06 9 -9 9 C-9 8.34 -9 7.68 -9 7 C-8.01 6.67 -7.02 6.34 -6 6 C-5.67 4.35 -5.34 2.7 -5 1 C-4.01 1 -3.02 1 -2 1 C-1.34 0.67 -0.68 0.34 0 0 Z " fill="#41AECF" transform="translate(124,101)"/>
<path d="M0 0 C0.80050781 0.12761719 1.60101563 0.25523437 2.42578125 0.38671875 C3.23402344 0.50660156 4.04226562 0.62648437 4.875 0.75 C5.48988281 0.85699219 6.10476562 0.96398437 6.73828125 1.07421875 C6.40828125 3.05421875 6.07828125 5.03421875 5.73828125 7.07421875 C4.08828125 7.07421875 2.43828125 7.07421875 0.73828125 7.07421875 C0.73828125 6.41421875 0.73828125 5.75421875 0.73828125 5.07421875 C0.07828125 4.74421875 -0.58171875 4.41421875 -1.26171875 4.07421875 C-2.41983263 5.12692338 -2.41983263 5.12692338 -3.26171875 7.07421875 C-3.92171875 5.75421875 -4.58171875 4.43421875 -5.26171875 3.07421875 C-3.53640014 0.90221572 -2.83921072 0.09316926 0 0 Z " fill="#201C1C" transform="translate(124.26171875,139.92578125)"/>
<path d="M0 0 C6.93 0 13.86 0 21 0 C21 0.66 21 1.32 21 2 C14.34362157 3.23839599 7.7528064 3.09139136 1 3 C0.67 2.01 0.34 1.02 0 0 Z " fill="#51A8D2" transform="translate(19,88)"/>
<path d="M0 0 C0.99 0 1.98 0 3 0 C3 4.29 3 8.58 3 13 C1.68 13.33 0.36 13.66 -1 14 C-1.027193 12.41676312 -1.04648306 10.83338938 -1.0625 9.25 C-1.07410156 8.36828125 -1.08570312 7.4865625 -1.09765625 6.578125 C-1.00826198 4.2181162 -0.66912821 2.25501476 0 0 Z " fill="#181718" transform="translate(79,137)"/>
<path d="M0 0 C4.95 0 9.9 0 15 0 C15.33 1.32 15.66 2.64 16 4 C15.01 4 14.02 4 13 4 C13 3.34 13 2.68 13 2 C8.38 2 3.76 2 -1 2 C-0.67 1.34 -0.34 0.68 0 0 Z " fill="#48A5C9" transform="translate(128,73)"/>
<path d="M0 0 C0.99 0 1.98 0 3 0 C5.91096449 6.45474735 7.49477356 10.85830412 6 18 C5.34 18 4.68 18 4 18 C3.93941406 17.10796875 3.87882812 16.2159375 3.81640625 15.296875 C3.73261719 14.12640625 3.64882812 12.9559375 3.5625 11.75 C3.48128906 10.58984375 3.40007812 9.4296875 3.31640625 8.234375 C2.96626327 4.54457711 2.96626327 4.54457711 2 1 C1.34 0.67 0.68 0.34 0 0 Z " fill="#57B4CE" transform="translate(105,70)"/>
<path d="M0 0 C2.97 0.33 5.94 0.66 9 1 C9 2.32 9 3.64 9 5 C6.03 5 3.06 5 0 5 C0 3.33333333 0 1.66666667 0 0 Z " fill="#1A181C" transform="translate(29,136)"/>
<path d="M0 0 C0.66 0 1.32 0 2 0 C4.44697666 4.36200187 5.50269348 8.02693484 6 13 C4.0625 12.5 4.0625 12.5 2 11 C1.3125 7.0625 1.3125 7.0625 1.17578125 4.97265625 C1.05760091 2.78817404 1.05760091 2.78817404 0 0 Z " fill="#4BAACD" transform="translate(122,60)"/>
<path d="M0 0 C5.61 0 11.22 0 17 0 C17 0.33 17 0.66 17 1 C11.39 1.66 5.78 2.32 0 3 C0 2.01 0 1.02 0 0 Z " fill="#31BAE2" transform="translate(98,109)"/>
<path d="M0 0 C0.99 0 1.98 0 3 0 C3.25 6.625 3.25 6.625 1 10 C0.34 9.67 -0.32 9.34 -1 9 C-0.67 6.03 -0.34 3.06 0 0 Z " fill="#121112" transform="translate(88,137)"/>
<path d="M0 0 C0 1.65 0 3.3 0 5 C-2.97 4.505 -2.97 4.505 -6 4 C-6 3.01 -6 2.02 -6 1 C-3 0 -3 0 0 0 Z " fill="#121213" transform="translate(146,150)"/>
<path d="M0 0 C2.05078125 0.03255208 4.1015625 0.06510417 6.15234375 0.09765625 C6.15234375 0.75765625 6.15234375 1.41765625 6.15234375 2.09765625 C2.77734375 2.72265625 2.77734375 2.72265625 -0.84765625 3.09765625 C-1.50765625 2.43765625 -2.16765625 1.77765625 -2.84765625 1.09765625 C-1.84765625 0.09765625 -1.84765625 0.09765625 0 0 Z " fill="#45B3D3" transform="translate(33.84765625,87.90234375)"/>
<path d="M0 0 C0.33 0.66 0.66 1.32 1 2 C2.64363134 2.72159424 4.31050386 3.39351421 6 4 C2.92677456 4.91058531 0.19902639 5.08886184 -3 5 C-2.67 4.01 -2.34 3.02 -2 2 C-1.34 2 -0.68 2 0 2 C0 1.34 0 0.68 0 0 Z " fill="#0E0A0E" transform="translate(157,147)"/>
<path d="M0 0 C0.99 0.33 1.98 0.66 3 1 C2.67 1.99 2.34 2.98 2 4 C-1.62326739 5.2077558 -2.64146369 4.54311128 -6 3 C-6 2.67 -6 2.34 -6 2 C-4.02 2 -2.04 2 0 2 C0 1.34 0 0.68 0 0 Z " fill="#1E1D1C" transform="translate(118,146)"/>
<path d="M0 0 C0.66 0.66 1.32 1.32 2 2 C1.525625 2.391875 1.05125 2.78375 0.5625 3.1875 C-1.35179633 5.40808374 -1.61266988 7.13375709 -2 10 C-2.66 9.34 -3.32 8.68 -4 8 C-3.77256695 5.04337034 -3.38764062 3.44966312 -1.4375 1.1875 C-0.963125 0.795625 -0.48875 0.40375 0 0 Z " fill="#0F0E0F" transform="translate(39,138)"/>
<path d="M0 0 C1.98 0 3.96 0 6 0 C6 0.99 6 1.98 6 3 C4.35 3 2.7 3 1 3 C0.67 2.01 0.34 1.02 0 0 Z " fill="#4BB1DE" transform="translate(41,88)"/>
<path d="M0 0 C0.66 0 1.32 0 2 0 C2 0.99 2 1.98 2 3 C1.34 3 0.68 3 0 3 C0 2.01 0 1.02 0 0 Z " fill="#181617" transform="translate(100,137)"/>
<path d="M0 0 C2 1 2 1 2 1 Z " fill="#151515" transform="translate(46,155)"/>
<path d="M0 0 C2 1 2 1 2 1 Z " fill="#000000" transform="translate(151,151)"/>
<path d="" fill="#000000" transform="translate(0,0)"/>
<path d="" fill="#190000" transform="translate(0,0)"/>
<path d="" fill="#000000" transform="translate(0,0)"/>
<path d="" fill="#000000" transform="translate(0,0)"/>
<path d="" fill="#1A1A1A" transform="translate(0,0)"/>
<path d="" fill="#000000" transform="translate(0,0)"/>
<path d="" fill="#000000" transform="translate(0,0)"/>
<path d="" fill="#000000" transform="translate(0,0)"/>
<path d="" fill="#000000" transform="translate(0,0)"/>
<path d="" fill="#000000" transform="translate(0,0)"/>
<path d="" fill="#000000" transform="translate(0,0)"/>
<path d="" fill="#000000" transform="translate(0,0)"/>
<path d="" fill="#000000" transform="translate(0,0)"/>
<path d="" fill="#000000" transform="translate(0,0)"/>
<path d="" fill="#000000" transform="translate(0,0)"/>
<path d="" fill="#000000" transform="translate(0,0)"/>
<path d="" fill="#000000" transform="translate(0,0)"/>
<path d="" fill="#000000" transform="translate(0,0)"/>
<path d="" fill="#000000" transform="translate(0,0)"/>
<path d="" fill="#242424" transform="translate(0,0)"/>
<path d="" fill="#000000" transform="translate(0,0)"/>
<path d="" fill="#000000" transform="translate(0,0)"/>
<path d="" fill="#000000" transform="translate(0,0)"/>
<path d="" fill="#000000" transform="translate(0,0)"/>
<path d="" fill="#000000" transform="translate(0,0)"/>
<path d="" fill="#000000" transform="translate(0,0)"/>
<path d="" fill="#1A1A1A" transform="translate(0,0)"/>
<path d="" fill="#404040" transform="translate(0,0)"/>
<path d="" fill="#000000" transform="translate(0,0)"/>
</svg>
