<?xml version="1.0" encoding="UTF-8"?>
<svg version="1.1" xmlns="http://www.w3.org/2000/svg" width="225" height="225">
<path d="M0 0 C3.96 0 7.92 0 12 0 C12.19335938 1.21816406 12.38671875 2.43632812 12.5859375 3.69140625 C12.8487383 5.31513979 13.1117715 6.93883574 13.375 8.5625 C13.50132813 9.36236328 13.62765625 10.16222656 13.7578125 10.98632812 C14.54102244 15.78348903 15.56592759 20.3548524 17 25 C21.18138445 18.07358454 22.77639645 11.83727697 23.640625 3.80859375 C24 1 24 1 25 0 C27.01964199 -0.07244053 29.04167124 -0.08377188 31.0625 -0.0625 C32.16722656 -0.05347656 33.27195312 -0.04445313 34.41015625 -0.03515625 C35.26480469 -0.02355469 36.11945313 -0.01195312 37 0 C37.08636719 0.79921875 37.17273438 1.5984375 37.26171875 2.421875 C38.31148936 10.62742142 40.47310289 17.52890117 44 25 C47.21443909 16.81779142 48.09495828 8.67775296 49 0 C52.96 0 56.92 0 61 0 C63.42429428 9.69717713 59.86274541 20.52063884 56.58935547 29.71972656 C55.70081751 32.28661399 54.98778905 34.52865727 55.05859375 37.26171875 C56.44170639 39.81559894 58.24156902 40.70751385 60.75 42.125 C61.61109375 42.62257812 62.4721875 43.12015625 63.359375 43.6328125 C65.86230017 44.92870571 68.36498651 46.00476109 71 47 C71.26683594 46.41734375 71.53367188 45.8346875 71.80859375 45.234375 C76.89777542 35.69007363 87.39928063 26.78884803 97 22 C97.66 22 98.32 22 99 22 C99.86646667 23.43011973 100.71781829 24.86940619 101.5625 26.3125 C102.03816406 27.11300781 102.51382813 27.91351563 103.00390625 28.73828125 C104 31 104 31 103 34 C100.7421875 35.796875 100.7421875 35.796875 97.875 37.75 C93.08420066 41.12292261 88.95172948 44.68411798 85 49 C91.55993065 49.51450436 96.73109807 48.05032771 102.94921875 45.97265625 C106 45 106 45 111 44 C112.98 47.3 114.96 50.6 117 54 C115.68 54.969375 114.36 55.93875 113 56.9375 C107.5270263 61.18944634 101.24403407 66.26789778 99 73 C101.71053975 72.23634014 104.41824143 71.46435752 107.125 70.6875 C107.88554687 70.47416016 108.64609375 70.26082031 109.4296875 70.04101562 C113.90147722 68.74959359 117.85109567 67.15011607 122 65 C122.66 65 123.32 65 124 65 C124.86646667 66.43011973 125.71781829 67.86940619 126.5625 69.3125 C127.03816406 70.11300781 127.51382813 70.91351563 128.00390625 71.73828125 C129 74 129 74 128 77 C125.521865 78.31052293 123.15421935 79.40041261 120.5625 80.4375 C119.81492432 80.74244385 119.06734863 81.0473877 118.29711914 81.36157227 C110.04276713 84.58944977 101.68608351 86.29014104 93 88 C92.67 93.94 92.34 99.88 92 106 C93.299375 106.061875 94.59875 106.12375 95.9375 106.1875 C107.43315609 107.34851221 119.01818907 111.23654652 129 117 C127.51911112 120.77948596 125.84952557 124.3850182 124 128 C120.10509172 127.36743278 116.84801011 126.16637488 113.25 124.5625 C108.17756362 122.39039234 103.41911739 120.99350486 98 120 C103.1079808 127.76184791 108.43436905 133.5893336 116 139 C114.74194623 143.50802601 113.09592835 146.4912812 110 150 C109.28457031 149.65066406 108.56914062 149.30132812 107.83203125 148.94140625 C100.14058743 145.42901341 93.4341439 144.14963804 85 144 C89.69681458 150.54199173 96.78209161 156.39104581 104 160 C102.77472971 164.05281712 101.30119506 167.44360764 99 171 C87.99823491 169.11106586 76.21269992 155.74682752 70 147 C68.64103467 147.37903115 67.28802411 147.77941175 65.9375 148.1875 C65.18339844 148.40792969 64.42929688 148.62835938 63.65234375 148.85546875 C60.01697861 150.42419038 57.16991063 152.62935692 54 155 C54.40992188 156.13695312 54.81984375 157.27390625 55.2421875 158.4453125 C59.08662389 169.36479412 62.54849097 180.24963576 62 192 C61 193 61 193 58.27734375 193.09765625 C56.62412109 193.08025391 56.62412109 193.08025391 54.9375 193.0625 C53.83277344 193.05347656 52.72804688 193.04445312 51.58984375 193.03515625 C50.30787109 193.01775391 50.30787109 193.01775391 49 193 C48.89042969 191.96101562 48.78085938 190.92203125 48.66796875 189.8515625 C47.78778781 181.96211267 46.70905625 174.513116 44 167 C40.48242181 174.45135839 38.33161329 181.28449999 37.359375 189.48046875 C37 192 37 192 36 193 C34.16884117 193.09851171 32.33380067 193.12972629 30.5 193.125 C29.4996875 193.12757813 28.499375 193.13015625 27.46875 193.1328125 C25 193 25 193 24 192 C23.69993945 189.83718729 23.43549754 187.66939908 23.1875 185.5 C22.45579346 180.02616484 21.32835629 175.57184506 18.8046875 170.671875 C18 169 18 169 18 167 C17.34 167 16.68 167 16 167 C14.05816043 175.59367299 13.01925153 184.26046032 12 193 C8.04 193 4.08 193 0 193 C-2.84449407 181.6220237 2.31213262 168.74235933 6 158 C6.33 157.01 6.66 156.02 7 155 C5.27728773 153.84448547 3.54653083 152.70095881 1.8125 151.5625 C0.36810547 150.60537109 0.36810547 150.60537109 -1.10546875 149.62890625 C-3.84977757 148.08453813 -5.90418343 147.40183359 -9 147 C-9.55945313 147.73863281 -10.11890625 148.47726563 -10.6953125 149.23828125 C-15.43851562 155.23972958 -20.29829282 160.43705574 -26.3125 165.1875 C-26.89854004 165.65647705 -27.48458008 166.1254541 -28.08837891 166.60864258 C-31.32547935 169.0837737 -33.91134662 170.60877801 -38 171 C-38.83848804 169.54462432 -39.67063934 168.08559627 -40.5 166.625 C-41.19609375 165.40683594 -41.19609375 165.40683594 -41.90625 164.1640625 C-43 162 -43 162 -43 160 C-41.34765625 158.7734375 -41.34765625 158.7734375 -39.0625 157.375 C-30.33264274 151.86199259 -30.33264274 151.86199259 -24 144 C-30.55993065 143.48549564 -35.73109807 144.94967229 -41.94921875 147.02734375 C-44.63204691 147.88268845 -47.23055958 148.5118797 -50 149 C-50.86658615 147.73760288 -51.71792059 146.46472499 -52.5625 145.1875 C-53.03816406 144.47980469 -53.51382813 143.77210938 -54.00390625 143.04296875 C-55 141 -55 141 -54 138 C-52.1796875 136.4921875 -52.1796875 136.4921875 -49.875 134.875 C-45.03509082 131.24313215 -41.24258342 127.11931981 -38 122 C-38 121.34 -38 120.68 -38 120 C-40.54377987 120.76434241 -43.08486141 121.53622297 -45.625 122.3125 C-46.33785156 122.52583984 -47.05070312 122.73917969 -47.78515625 122.95898438 C-52.10553604 124.28680752 -55.94996874 125.96892145 -60 128 C-62.125 127.625 -62.125 127.625 -64 126 C-68 120.23448276 -68 120.23448276 -68 117 C-55.70836237 110.94541466 -44.83158051 106.89815458 -31 106 C-31 99.73 -31 93.46 -31 87 C-32.299375 86.938125 -33.59875 86.87625 -34.9375 86.8125 C-46.43315609 85.65148779 -58.01818907 81.76345348 -68 76 C-66.45657029 71.91894938 -64.50065501 68.58427218 -62 65 C-58.31127768 66.16485968 -54.75309525 67.50923631 -51.1875 69 C-46.50821964 70.90295468 -41.95467541 72.04103057 -37 73 C-42.1079808 65.23815209 -47.43436905 59.4106664 -55 54 C-53.74194623 49.49197399 -52.09592835 46.5087188 -49 43 C-47.67935547 43.52400391 -47.67935547 43.52400391 -46.33203125 44.05859375 C-45.17058594 44.51363281 -44.00914063 44.96867187 -42.8125 45.4375 C-41.66394531 45.88996094 -40.51539062 46.34242187 -39.33203125 46.80859375 C-34.0464997 48.69849659 -29.61147209 49.11002886 -24 49 C-26.68627637 45.43897774 -29.43268563 42.62916846 -32.9375 39.875 C-33.77152344 39.21242187 -34.60554688 38.54984375 -35.46484375 37.8671875 C-37.90026583 36.07345599 -40.38057518 34.50886367 -43 33 C-41.77472971 28.94718288 -40.30119506 25.55639236 -38 22 C-34.11684248 22.61216836 -31.67547149 24.48532714 -28.5625 26.8125 C-27.17224609 27.84310547 -27.17224609 27.84310547 -25.75390625 28.89453125 C-24.39072266 29.93673828 -24.39072266 29.93673828 -23 31 C-21.73929688 31.94166016 -21.73929688 31.94166016 -20.453125 32.90234375 C-17.65893159 35.29164608 -15.47861706 37.87755473 -13.1875 40.75 C-12.39730469 41.73484375 -11.60710937 42.7196875 -10.79296875 43.734375 C-10.20128906 44.48203125 -9.60960937 45.2296875 -9 46 C-2.73519555 44.25267359 1.88233868 42.02879721 7 38 C6.81824219 37.47792969 6.63648437 36.95585938 6.44921875 36.41796875 C2.25420702 24.1341139 -0.16082186 13.02657096 0 0 Z M30 28 C28.93371487 29.57432126 27.92193317 31.18574165 26.9375 32.8125 C26.38964844 33.70582031 25.84179688 34.59914063 25.27734375 35.51953125 C23.77108876 37.97951488 23.77108876 37.97951488 24 41 C25.23417619 43.1097587 25.23417619 43.1097587 26.875 45.1875 C27.40867187 45.90292969 27.94234375 46.61835937 28.4921875 47.35546875 C28.98976563 47.89816406 29.48734375 48.44085938 30 49 C32.13551341 49.23541001 32.13551341 49.23541001 33.578125 47.42578125 C35.22802244 45.34028005 36.71168379 43.32770352 38 41 C37.86007491 38.34921783 37.86007491 38.34921783 36 36 C35.59265625 35.31292969 35.1853125 34.62585937 34.765625 33.91796875 C33.56327924 31.89873514 32.36338827 29.91444416 31 28 C30.67 28 30.34 28 30 28 Z M7.625 52.375 C4.47893713 54.43562878 1.40730236 56.40131311 -2 58 C-1.52269162 59.4589426 -1.04308958 60.91713496 -0.5625 62.375 C-0.29566406 63.18710938 -0.02882813 63.99921875 0.24609375 64.8359375 C0.95179729 67.01031799 0.95179729 67.01031799 2 69 C6.30788231 68.40278896 9.43962226 66.86173466 13.1875 64.6875 C14.23292969 64.09324219 15.27835938 63.49898437 16.35546875 62.88671875 C18.96319793 61.02625613 19.93390978 59.96281514 21 57 C20.04956626 55.66102417 19.08940853 54.32894573 18.125 53 C17.32449219 51.88625 17.32449219 51.88625 16.5078125 50.75 C16.01023437 50.1725 15.51265625 49.595 15 49 C11.9331405 49 10.16024478 50.70975879 7.625 52.375 Z M47 49 C45.82739389 50.28627711 44.6620717 51.57919783 43.5 52.875 C42.8503125 53.59429687 42.200625 54.31359375 41.53125 55.0546875 C39.79382728 56.84931098 39.79382728 56.84931098 40 59 C45.19313135 62.8347856 50.98488705 66.59395482 57 69 C60.16590906 68.3340424 60.16590906 68.3340424 61.16796875 65.71484375 C61.50441406 64.79832031 61.84085938 63.88179687 62.1875 62.9375 C62.53167969 62.01839844 62.87585938 61.09929687 63.23046875 60.15234375 C63.61138672 59.08693359 63.61138672 59.08693359 64 58 C61.91706723 56.8742531 59.83367092 55.74937917 57.75 54.625 C56.58984375 53.99851562 55.4296875 53.37203125 54.234375 52.7265625 C51.83763374 51.44714265 49.43911709 50.19540887 47 49 Z M-28 62 C-26.70639401 65.23401498 -25.44092886 68.2328399 -23.875 71.3125 C-23.52179687 72.00988281 -23.16859375 72.70726563 -22.8046875 73.42578125 C-22.53914063 73.94527344 -22.27359375 74.46476562 -22 75 C-20.3745692 74.85904936 -18.74965949 74.71207913 -17.125 74.5625 C-16.22007813 74.48128906 -15.31515625 74.40007812 -14.3828125 74.31640625 C-11.98889139 74.13010715 -11.98889139 74.13010715 -10 73 C-10.47730838 71.5410574 -10.95691042 70.08286504 -11.4375 68.625 C-11.70433594 67.81289062 -11.97117187 67.00078125 -12.24609375 66.1640625 C-12.95179729 63.98968201 -12.95179729 63.98968201 -14 62 C-18.62 62 -23.24 62 -28 62 Z M75 62 C73.68 65.63 72.36 69.26 71 73 C73.43387753 74.21693876 75.41838846 74.31959896 78.125 74.5625 C79.73375 74.706875 81.3425 74.85125 83 75 C86.465 68.565 86.465 68.565 90 62 C85.05 62 80.1 62 75 62 Z M25.75 70.0625 C19.50380029 74.55023879 12.92248146 77.6744942 6 81 C6 91.23 6 101.46 6 112 C8.454375 113.19625 10.90875 114.3925 13.4375 115.625 C19.60434457 118.66993817 25.44042002 121.92297468 31 126 C31.54785156 125.5875 32.09570312 125.175 32.66015625 124.75 C40.08744937 119.33954907 47.85337637 115.22143225 56 111 C56 101.1 56 91.2 56 81 C53.525 79.80375 51.05 78.6075 48.5 77.375 C43.05146356 74.70074356 38.04924789 71.96528521 33.3828125 68.03125 C30.27037291 65.71010861 28.40740876 68.06064406 25.75 70.0625 Z M68 85 C66.71804468 88.84586595 66.81584455 92.49322597 66.8125 96.5 C66.80025391 97.27214844 66.78800781 98.04429688 66.77539062 98.83984375 C66.76523009 102.7482648 66.78427952 104.67641928 69 108 C74.445 107.01 74.445 107.01 80 106 C80 99.73 80 93.46 80 87 C74.06 86.01 74.06 86.01 68 85 Z M-13.625 85.9375 C-16.285625 86.4634375 -16.285625 86.4634375 -19 87 C-19 93.27 -19 99.54 -19 106 C-16.0609375 106.5259375 -16.0609375 106.5259375 -13.0625 107.0625 C-11.96035156 107.25972656 -10.85820313 107.45695312 -9.72265625 107.66015625 C-8.82417969 107.77230469 -7.92570312 107.88445312 -7 108 C-5.77215191 106.99440206 -5.77215191 106.99440206 -5.88647461 104.95874023 C-5.89171143 104.08419189 -5.89694824 103.20964355 -5.90234375 102.30859375 C-5.90556641 101.36435547 -5.90878906 100.42011719 -5.91210938 99.44726562 C-5.92048828 98.45404297 -5.92886719 97.46082031 -5.9375 96.4375 C-5.94201172 95.44041016 -5.94652344 94.44332031 -5.95117188 93.41601562 C-5.96299993 90.94395151 -5.97948151 88.47200482 -6 86 C-8.81484045 84.59257978 -10.56936113 85.33347836 -13.625 85.9375 Z M-22 118 C-22.825 119.60875 -23.65 121.2175 -24.5 122.875 C-24.9640625 123.77992188 -25.428125 124.68484375 -25.90625 125.6171875 C-27.13905589 127.86596859 -27.13905589 127.86596859 -27 130 C-22.59085217 131.10228696 -18.51617599 131.07654536 -14 131 C-13.30062798 129.5682384 -12.61587282 128.12932968 -11.9375 126.6875 C-11.36322266 125.48673828 -11.36322266 125.48673828 -10.77734375 124.26171875 C-9.70264486 121.87971247 -9.70264486 121.87971247 -11 119 C-14.63 118.67 -18.26 118.34 -22 118 Z M77.5625 118.4375 C76.75941406 118.51871094 75.95632812 118.59992188 75.12890625 118.68359375 C72.95221563 118.89436478 72.95221563 118.89436478 71 120 C71.47730838 121.4589426 71.95691042 122.91713496 72.4375 124.375 C72.70433594 125.18710938 72.97117188 125.99921875 73.24609375 126.8359375 C73.95179729 129.01031799 73.95179729 129.01031799 75 131 C79.62 131 84.24 131 89 131 C87.70639401 127.76598502 86.44092886 124.7671601 84.875 121.6875 C84.52179688 120.99011719 84.16859375 120.29273438 83.8046875 119.57421875 C83.53914062 119.05472656 83.27359375 118.53523438 83 118 C81.1785773 118 79.37253149 118.24925672 77.5625 118.4375 Z M2 124 C1.32880451 125.4562545 0.66318193 126.91507867 0 128.375 C-0.37125 129.18710938 -0.7425 129.99921875 -1.125 130.8359375 C-2.12495013 132.91998433 -2.12495013 132.91998433 -2 135 C0.26896632 136.31582063 2.54003187 137.62775236 4.8125 138.9375 C5.45509766 139.31068359 6.09769531 139.68386719 6.75976562 140.06835938 C9.48316424 141.63466635 12.01108122 143.00369374 15 144 C16.98 141.36 18.96 138.72 21 136 C18.7219004 131.4438008 16.33573451 130.08321197 12.0625 127.75 C11.42892578 127.38648438 10.79535156 127.02296875 10.14257812 126.6484375 C7.23683451 125.02293213 5.38004412 124 2 124 Z M40 134 C41.66751148 137.94139078 44.22710649 140.7892812 47 144 C47.81984375 143.51789063 48.6396875 143.03578125 49.484375 142.5390625 C51.10085937 141.59160156 51.10085937 141.59160156 52.75 140.625 C53.81734375 139.99851563 54.8846875 139.37203125 55.984375 138.7265625 C58.29738678 137.40227337 60.59951417 136.15363154 63 135 C62.60446947 133.3489597 62.18286103 131.7041485 61.75 130.0625 C61.51796875 129.14597656 61.2859375 128.22945312 61.046875 127.28515625 C60.22553045 124.89683341 60.22553045 124.89683341 58.23046875 124.015625 C51.86250789 123.97101582 44.55011931 129.92058268 40 134 Z M30 143 C28.77776825 144.64136638 27.59686965 146.31364415 26.4375 148 C25.303125 149.65 24.16875 151.3 23 153 C25.31 156.96 27.62 160.92 30 165 C34.35134583 159.72054011 34.35134583 159.72054011 38 154 C37.20821453 149.4755116 34.00980504 146.318503 31 143 C30.67 143 30.34 143 30 143 Z " fill="#010101" transform="translate(82,16)"/>
<path d="" fill="#000000" transform="translate(0,0)"/>
<path d="" fill="#000000" transform="translate(0,0)"/>
</svg>
