<?xml version="1.0" encoding="UTF-8"?>
<svg version="1.1" xmlns="http://www.w3.org/2000/svg" width="320" height="320">
<path d="M0 0 C4.56182132 1.14045533 5.74477336 2.39254361 8.984375 5.69140625 C9.44483215 6.15610825 9.90528931 6.62081024 10.37969971 7.09959412 C11.84367811 8.58031819 13.29686041 10.07114519 14.75 11.5625 C15.74279449 12.57034664 16.7362767 13.57751633 17.73046875 14.58398438 C20.16166473 17.04819461 22.58328868 19.52157329 25 22 C28.35951675 20.39706454 30.80047308 18.57881118 33.5625 16.0625 C34.43132812 15.27101563 35.30015625 14.47953125 36.1953125 13.6640625 C38.16851578 11.78979421 40.09311564 9.90683917 41.9921875 7.9609375 C42.72973267 7.20671509 42.72973267 7.20671509 43.48217773 6.43725586 C44.88057318 4.9961649 46.26673716 3.54323541 47.65234375 2.08984375 C50 0 50 0 53 0 C53.33 17.16 53.66 34.32 54 52 C62.14293656 43.77788063 62.14293656 43.77788063 70.27490234 35.54492188 C71.29484958 34.51913555 72.31516905 33.49371914 73.3359375 32.46875 C73.86550049 31.92895508 74.39506348 31.38916016 74.94067383 30.83300781 C76.25629011 29.51676475 77.62357043 28.25251093 79 27 C79.66 27 80.32 27 81 27 C81 38.55 81 50.1 81 62 C92.88 62 104.76 62 117 62 C117 62.99 117 63.98 117 65 C115.53564453 66.45727539 115.53564453 66.45727539 113.5078125 68.03515625 C110.19664125 70.7867439 107.7048465 73.57496602 105.1796875 77.05859375 C99.51206319 84.3807253 93.92093544 91.46381664 84.35839844 92.91650391 C73.25683669 93.98971533 62.06735733 93.02265109 51 92 C50.67 81.11 50.34 70.22 50 59 C42.41 66.59 34.82 74.18 27 82 C18 75.25 18 75.25 14.71875 71.9140625 C14.08904297 71.27936035 13.45933594 70.6446582 12.81054688 69.99072266 C11.66682617 68.81968994 11.66682617 68.81968994 10.5 67.625 C8.025 65.10875 5.55 62.5925 3 60 C2.67 70.56 2.34 81.12 2 92 C-3.25152441 92.20780336 -8.48858956 92.38642963 -13.7409668 92.49438477 C-15.52303584 92.53940036 -17.30477702 92.60063876 -19.08569336 92.67895508 C-33.8894883 93.31322577 -33.8894883 93.31322577 -39.09692383 90.07299805 C-41.32702268 87.83012841 -43.1429967 85.55241977 -45 83 C-46.2389312 81.86015314 -47.50561914 80.74875577 -48.8125 79.6875 C-54.52646896 74.79643529 -59.72514443 69.35397841 -65 64 C-64.67 63.34 -64.34 62.68 -64 62 C-52.45 62 -40.9 62 -29 62 C-29 50.45 -29 38.9 -29 27 C-25.09904667 28.95047666 -23.13195711 30.64751338 -20.12109375 33.71875 C-18.73954102 35.11673828 -18.73954102 35.11673828 -17.33007812 36.54296875 C-16.36552938 37.52829743 -15.40134027 38.51397829 -14.4375 39.5 C-12.54361235 41.43033905 -10.64561677 43.3564355 -8.74609375 45.28125 C-7.90747803 46.13783203 -7.0688623 46.99441406 -6.20483398 47.87695312 C-3.99158841 50.13384095 -3.99158841 50.13384095 -1 52 C-0.67 34.84 -0.34 17.68 0 0 Z " fill="#0077AD" transform="translate(136,56)"/>
<path d="M0 0 C9.6961195 2.42402988 18.56260367 9.68405622 23.90527344 18.10986328 C32.3063546 34.64846053 27.30189009 62.93805305 26 81 C17.56506264 74.82515305 17.56506264 74.82515305 13.9375 71.1328125 C13.34839844 70.53871582 12.75929688 69.94461914 12.15234375 69.33251953 C11.44207031 68.60403809 10.73179687 67.87555664 10 67.125 C7.69 64.77375 5.38 62.4225 3 60 C2.67 70.56 2.34 81.12 2 92 C-3.25152441 92.20780336 -8.48858956 92.38642963 -13.7409668 92.49438477 C-15.52303584 92.53940036 -17.30477702 92.60063876 -19.08569336 92.67895508 C-33.8894883 93.31322577 -33.8894883 93.31322577 -39.09692383 90.07299805 C-41.32702268 87.83012841 -43.1429967 85.55241977 -45 83 C-46.2389312 81.86015314 -47.50561914 80.74875577 -48.8125 79.6875 C-54.52646896 74.79643529 -59.72514443 69.35397841 -65 64 C-64.67 63.34 -64.34 62.68 -64 62 C-52.45 62 -40.9 62 -29 62 C-29 50.45 -29 38.9 -29 27 C-25.09904667 28.95047666 -23.13195711 30.64751338 -20.12109375 33.71875 C-18.73954102 35.11673828 -18.73954102 35.11673828 -17.33007812 36.54296875 C-16.36552938 37.52829743 -15.40134027 38.51397829 -14.4375 39.5 C-12.54361235 41.43033905 -10.64561677 43.3564355 -8.74609375 45.28125 C-7.90747803 46.13783203 -7.0688623 46.99441406 -6.20483398 47.87695312 C-3.99158841 50.13384095 -3.99158841 50.13384095 -1 52 C-0.67 34.84 -0.34 17.68 0 0 Z " fill="#0077AD" transform="translate(136,56)"/>
<path d="M0 0 C9.68185691 2.22561025 18.62343896 9.77999823 23.90527344 18.10986328 C32.3063546 34.64846053 27.30189009 62.93805305 26 81 C21.625778 77.80144365 17.38212367 74.63467803 13.53515625 70.80078125 C12.79845703 70.06666016 12.06175781 69.33253906 11.30273438 68.57617188 C10.19381836 67.4556543 10.19381836 67.4556543 9.0625 66.3125 C8.29615234 65.55388672 7.52980469 64.79527344 6.74023438 64.01367188 C6.01255859 63.28341797 5.28488281 62.55316406 4.53515625 61.80078125 C3.879104 61.14247314 3.22305176 60.48416504 2.54711914 59.8059082 C-0.19399083 56.60628843 -0.122759 53.64568465 -0.11352539 49.6105957 C-0.11344986 48.50968094 -0.11337433 47.40876617 -0.11329651 46.27449036 C-0.10813522 45.08691635 -0.10297394 43.89934235 -0.09765625 42.67578125 C-0.0962413 41.45924362 -0.09482635 40.24270599 -0.09336853 38.98930359 C-0.08776312 35.0970109 -0.07520967 31.20477536 -0.0625 27.3125 C-0.0574857 24.67643312 -0.05292267 22.04036534 -0.04882812 19.40429688 C-0.03779193 12.93617836 -0.0210485 6.46809326 0 0 Z " fill="#002F56" transform="translate(136,56)"/>
<path d="M0 0 C32.7255853 -2.43104348 32.7255853 -2.43104348 40.16015625 2.87109375 C43.17520765 5.69432043 45.58553251 8.88174928 47.84619141 12.32958984 C49.39462161 14.57130789 51.2569546 16.17817939 53.375 17.875 C57.46952547 21.34914282 61.36912095 25.04079678 65 29 C65 29.33 65 29.66 65 30 C59.8957147 30.22405694 54.79434323 30.38649831 49.6862793 30.49438477 C47.95269878 30.53938979 46.219455 30.60062043 44.48706055 30.67895508 C30.08923589 31.31323874 30.08923589 31.31323874 24.93432617 28.07299805 C22.70350739 25.82940435 20.8707026 23.54419926 19 21 C17.76051615 19.86075412 16.49381894 18.74944736 15.1875 17.6875 C9.47353104 12.79643529 4.27485557 7.35397841 -1 2 C-0.67 1.34 -0.34 0.68 0 0 Z " fill="#003057" transform="translate(72,118)"/>
<path d="M0 0 C0 0.99 0 1.98 0 3 C-1.4621582 4.45727539 -1.4621582 4.45727539 -3.48828125 6.03515625 C-6.80030874 8.7880573 -9.31277766 11.58563402 -11.85546875 15.05859375 C-23.07555332 29.44534072 -23.07555332 29.44534072 -32.54345703 30.91650391 C-43.32195455 31.98385848 -54.25635414 31.10741672 -65 30 C-64.20851562 29.09121094 -63.41703125 28.18242187 -62.6015625 27.24609375 C-60.62888419 24.96873476 -58.74890733 22.66858372 -56.92871094 20.26611328 C-40.51680711 -1.18884879 -26.1406611 -3.24560156 0 0 Z " fill="#0077AD" transform="translate(253,118)"/>
<path d="M0 0 C4.78643799 29.58450346 4.78643799 29.58450346 -2.83007812 40.55126953 C-10.2151672 49.85949167 -19.53247417 57.86833572 -29 65 C-29.33 65 -29.66 65 -30 65 C-30.17409588 60.01970985 -30.30055003 55.04121999 -30.38452148 50.05859375 C-30.41955043 48.36687337 -30.46719144 46.67536226 -30.52807617 44.984375 C-31.08468246 29.11875713 -31.08468246 29.11875713 -27.1484375 24.53125 C-25.78980851 23.32633388 -24.40400678 22.15172069 -23 21 C-21.25154902 19.22079694 -19.5168245 17.42804347 -17.79296875 15.625 C-16.40004495 14.22325402 -15.00708215 12.82153709 -13.60961914 11.42431641 C-12.16718144 9.97965004 -10.73298435 8.52710146 -9.29882812 7.07421875 C-8.38939453 6.16285156 -7.47996094 5.25148438 -6.54296875 4.3125 C-5.71821045 3.48363281 -4.89345215 2.65476562 -4.04370117 1.80078125 C-2 0 -2 0 0 0 Z " fill="#003057" transform="translate(217,83)"/>
<path d="M0 0 C2.64 0 5.28 0 8 0 C10.31 4.95 12.62 9.9 15 15 C15.969375 13.081875 16.93875 11.16375 17.9375 9.1875 C18.48277344 8.10855469 19.02804688 7.02960938 19.58984375 5.91796875 C21.0585207 3.03788473 21.0585207 3.03788473 22 0 C24.97 0 27.94 0 31 0 C31 0.66 31 1.32 31 2 C30.01 2.33 29.02 2.66 28 3 C28 8.94 28 14.88 28 21 C28.99 21.33 29.98 21.66 31 22 C30.67 22.99 30.34 23.98 30 25 C26.7 25 23.4 25 20 25 C20 24.01 20 23.02 20 22 C20.66 22 21.32 22 22 22 C21.67 19.03 21.34 16.06 21 13 C19.35 16.63 17.7 20.26 16 24 C15.01 24 14.02 24 13 24 C11.35 20.37 9.7 16.74 8 13 C7.67 15.97 7.34 18.94 7 22 C7.99 22 8.98 22 10 22 C9.67 22.99 9.34 23.98 9 25 C6.03 25 3.06 25 0 25 C0 24.01 0 23.02 0 22 C0.99 22 1.98 22 3 22 C3.08069658 19.04112541 3.14034665 16.0844341 3.1875 13.125 C3.21263672 12.28324219 3.23777344 11.44148437 3.26367188 10.57421875 C3.27817383 9.36572266 3.27817383 9.36572266 3.29296875 8.1328125 C3.3086792 7.38918457 3.32438965 6.64555664 3.34057617 5.87939453 C3.22818604 5.25919434 3.1157959 4.63899414 3 4 C2.01 3.34 1.02 2.68 0 2 C0 1.34 0 0.68 0 0 Z " fill="#002E56" transform="translate(21,164)"/>
<path d="M0 0 C37.62 0 75.24 0 114 0 C114 0.99 114 1.98 114 3 C76.38 3 38.76 3 0 3 C0 2.01 0 1.02 0 0 Z " fill="#002F56" transform="translate(16,228)"/>
<path d="M0 0 C36.96 0 73.92 0 112 0 C112 0.99 112 1.98 112 3 C75.04 3 38.08 3 0 3 C0 2.01 0 1.02 0 0 Z " fill="#002F56" transform="translate(192,228)"/>
<path d="M0 0 C3.31172065 -0.42976527 5.90843008 -0.72751369 8.78027344 1.18652344 C10.57087291 2.84637748 12.23040766 4.57051674 13.875 6.375 C14.74511719 7.27992188 14.74511719 7.27992188 15.6328125 8.203125 C19.78367457 12.56734914 19.78367457 12.56734914 21 15 C21 11.04 21 7.08 21 3 C20.34 2.67 19.68 2.34 19 2 C19 1.34 19 0.68 19 0 C22.3 0 25.6 0 29 0 C29 0.66 29 1.32 29 2 C28.01 2 27.02 2 26 2 C26 9.59 26 17.18 26 25 C23 25 23 25 21.421875 23.49609375 C20.59429687 22.47708984 20.59429687 22.47708984 19.75 21.4375 C16.36362381 17.38684533 12.77107246 13.6941118 9 10 C8.67 13.96 8.34 17.92 8 22 C8.99 22 9.98 22 11 22 C11 22.66 11 23.32 11 24 C7.7 24 4.4 24 1 24 C1 23.34 1 22.68 1 22 C1.99 22 2.98 22 4 22 C3.91329863 19.04019468 3.80646977 16.08353131 3.6875 13.125 C3.66494141 12.28324219 3.64238281 11.44148437 3.61914062 10.57421875 C3.58369141 9.76855469 3.54824219 8.96289062 3.51171875 8.1328125 C3.48553467 7.38918457 3.45935059 6.64555664 3.43237305 5.87939453 C3.13270409 3.59266174 3.13270409 3.59266174 0 2 C0 1.34 0 0.68 0 0 Z " fill="#002E56" transform="translate(112,164)"/>
<path d="M0 0 C2.39774745 -0.13572155 4.78775245 -0.23436868 7.1875 -0.3125 C8.19780273 -0.3753418 8.19780273 -0.3753418 9.22851562 -0.43945312 C13.32198414 -0.53929382 14.81111803 -0.15925343 17.98828125 2.51953125 C18.98408203 3.74736328 18.98408203 3.74736328 20 5 C18.94124926 8.40312738 17.99097846 11.01353231 16 14 C16.9080162 15.13199353 17.82683826 16.25532363 18.75 17.375 C19.26046875 18.00148437 19.7709375 18.62796875 20.296875 19.2734375 C22.08199481 21.08312318 23.67949644 22.00117455 26 23 C26 23.66 26 24.32 26 25 C20.31947236 24.61487948 17.17706282 24.17706282 13 20 C11 17 11 17 11 14 C10.01 14 9.02 14 8 14 C8 16.64 8 19.28 8 22 C8.99 22 9.98 22 11 22 C10.67 22.99 10.34 23.98 10 25 C6.7 25 3.4 25 0 25 C0 24.01 0 23.02 0 22 C0.99 22 1.98 22 3 22 C3 15.73 3 9.46 3 3 C2.01 3 1.02 3 0 3 C0 2.01 0 1.02 0 0 Z M8 2 C8 5.3 8 8.6 8 12 C11.00384054 11.3045656 11.00384054 11.3045656 14 10 C15.1576585 8.12042756 15.1576585 8.12042756 15 6 C13.33045181 2.77595022 13.33045181 2.77595022 10.375 2.3125 C9.59125 2.209375 8.8075 2.10625 8 2 Z " fill="#002F56" transform="translate(181,164)"/>
<path d="M0 0 C3.4081376 2.51801225 4.83777255 5.43220392 6 9.5 C6 13.62589676 5.28030902 15.57953648 3 19 C-0.6799016 22.40390898 -3.26528618 23.8690782 -8.3125 24.25 C-13.1365863 23.9229433 -16.26977325 22.61090076 -19.8125 19.3125 C-21.54314232 15.9423018 -22.23102065 12.75233541 -22 9 C-20.72095107 5.18555823 -18.7406082 2.55545615 -15.5 0.125 C-9.94625128 -2.37418692 -5.68365427 -2.20862145 0 0 Z M-16 5 C-17.46252132 9.19137208 -17.28662895 12.22610183 -15.75 16.375 C-14.10416667 19.20833333 -14.10416667 19.20833333 -11 21 C-7.18870997 21.41577709 -4.90880626 21.5739829 -1.625 19.5 C0.59870463 16.07891595 1.21059307 13.06606616 1 9 C-0.55417649 5.31905569 -2.50164256 2.95496445 -6 1 C-10.58235328 0.17752633 -12.93857896 1.59842107 -16 5 Z " fill="#002E56" transform="translate(75,165)"/>
<path d="M0 0 C2.59457559 2.20814944 4.4780441 3.95608819 6 7 C6.37838031 12.01353911 6.13135639 15.00482115 3 19 C-1.45071582 22.9079456 -3.95280372 24.31281603 -9.97265625 24.21484375 C-14.08764203 23.77876626 -16.3660953 21.58250702 -19.3125 18.875 C-21.68078099 14.84015091 -22.02189254 11.56341326 -21 7 C-18.7110374 2.72133845 -16.00244166 0.46409336 -11.625 -1.5625 C-7.27059247 -2.08803194 -4.00757525 -1.80634943 0 0 Z M-16 6 C-16.82515263 10.73199773 -16.5883853 14.87775674 -14 19 C-10.24952518 21.50031654 -8.44143734 21.53603554 -4 21 C-1.09242611 19.02037522 0.66093205 17.6016924 1.41015625 14.0625 C1.60330446 9.62848892 0.88611382 6.50456679 -2 3 C-7.66998514 -0.9689896 -12.11650419 0.56310587 -16 6 Z " fill="#002F56" transform="translate(227,165)"/>
<path d="M0 0 C3.96 0 7.92 0 12 0 C12 0.66 12 1.32 12 2 C11.01 2 10.02 2 9 2 C9.14053872 4.62538284 9.28718947 7.25017427 9.4375 9.875 C9.47681641 10.62136719 9.51613281 11.36773437 9.55664062 12.13671875 C9.71573624 16.19986864 9.71573624 16.19986864 11 20 C15.13191749 21.34008135 15.88348273 21.05825864 20 19 C20 13.72 20 8.44 20 3 C19.34 2.67 18.68 2.34 18 2 C18 1.34 18 0.68 18 0 C21.3 0 24.6 0 28 0 C28 0.66 28 1.32 28 2 C27.01 2.495 27.01 2.495 26 3 C25.63766801 6.46279304 25.5552977 9.90751877 25.44140625 13.38671875 C24.90650402 17.76534323 23.82123422 21.56903025 20.25 24.375 C15.88744851 25.58681986 12.30945459 25.61107881 8.1875 23.6875 C6 22 6 22 4 19 C3.69933846 16.24582682 3.49074701 13.57354853 3.375 10.8125 C3.33632812 10.06291016 3.29765625 9.31332031 3.2578125 8.54101562 C3.16371784 6.69440801 3.08077681 4.8472381 3 3 C2.01 2.67 1.02 2.34 0 2 C0 1.34 0 0.68 0 0 Z " fill="#002E56" transform="translate(82,164)"/>
<path d="M0 0 C0.66 0 1.32 0 2 0 C2.31453125 0.85464844 2.6290625 1.70929688 2.953125 2.58984375 C3.38109375 3.69457031 3.8090625 4.79929688 4.25 5.9375 C4.66765625 7.03964844 5.0853125 8.14179688 5.515625 9.27734375 C6.25039062 10.62505859 6.25039062 10.62505859 7 12 C8.32 12.33 9.64 12.66 11 13 C11 9.7 11 6.4 11 3 C10.34 3 9.68 3 9 3 C9 2.34 9 1.68 9 1 C11.47243647 -0.23621824 12.77317939 0.01591399 15.5 0.3125 C16.2940625 0.39113281 17.088125 0.46976563 17.90625 0.55078125 C20 1 20 1 22 3 C21.625 6.625 21.625 6.625 21 10 C21.66 10.45375 22.32 10.9075 23 11.375 C23.66 11.91125 24.32 12.4475 25 13 C25 13.66 25 14.32 25 15 C21.26512223 14.5020163 19.18762365 14.12508244 16 12 C16.33 12.99 16.66 13.98 17 15 C11.72 15 6.44 15 1 15 C1.33 13.35 1.66 11.7 2 10 C1.01 10.33 0.02 10.66 -1 11 C-1 12.32 -1 13.64 -1 15 C-2.98 15 -4.96 15 -7 15 C-6.72414063 14.45859375 -6.44828125 13.9171875 -6.1640625 13.359375 C-4.84259131 10.68095688 -3.60599624 7.97114959 -2.375 5.25 C-1.92898437 4.26515625 -1.48296875 3.2803125 -1.0234375 2.265625 C-0.68570313 1.51796875 -0.34796875 0.7703125 0 0 Z M15 3 C15 4.32 15 5.64 15 7 C15.99 6.67 16.98 6.34 18 6 C17.67 5.01 17.34 4.02 17 3 C16.34 3 15.68 3 15 3 Z " fill="#002E55" transform="translate(121,247)"/>
<path d="M0 0 C7.38461538 -0.36923077 7.38461538 -0.36923077 10.5 1.5 C10.995 1.995 11.49 2.49 12 3 C11.49396008 5.16874252 11.00016187 6.99967627 10 9 C12.27415287 12.37088267 12.27415287 12.37088267 16 14 C16 12.68 16 11.36 16 10 C16.66 10 17.32 10 18 10 C18.99 11.485 18.99 11.485 20 13 C20.66 13 21.32 13 22 13 C22 12.34 22 11.68 22 11 C21.175 10.401875 20.35 9.80375 19.5 9.1875 C17 7 17 7 16.5625 4.375 C17 2 17 2 19 0 C21.625 -0.125 21.625 -0.125 24 0 C24.66 1.32 25.32 2.64 26 4 C23 4 23 4 21 3 C21 3.66 21 4.32 21 5 C22.62626404 6.38232443 24.2925002 7.71937515 26 9 C25.67 10.98 25.34 12.96 25 15 C15.68595041 16.52066116 15.68595041 16.52066116 11 16 C8.0625 13.5 8.0625 13.5 6 11 C5.67 11.99 5.34 12.98 5 14 C5.66 14 6.32 14 7 14 C7 14.66 7 15.32 7 16 C4.36 16 1.72 16 -1 16 C-1 15.34 -1 14.68 -1 14 C-0.34 14 0.32 14 1 14 C1 10.37 1 6.74 1 3 C0.34 3 -0.32 3 -1 3 C-0.67 2.01 -0.34 1.02 0 0 Z M5 3 C5 4.32 5 5.64 5 7 C5.99 7 6.98 7 8 7 C8 5.68 8 4.36 8 3 C7.01 3 6.02 3 5 3 Z " fill="#002E56" transform="translate(169,198)"/>
<path d="M0 0 C0.66 0 1.32 0 2 0 C3.00419637 2.4566947 4.00350501 4.91518353 5 7.375 C5.28617188 8.07367188 5.57234375 8.77234375 5.8671875 9.4921875 C8 14.7734375 8 14.7734375 8 17 C9.32 17 10.64 17 12 17 C11.9278125 16.31292969 11.855625 15.62585938 11.78125 14.91796875 C11.6884375 14.01691406 11.595625 13.11585938 11.5 12.1875 C11.4071875 11.29417969 11.314375 10.40085938 11.21875 9.48046875 C11 7 11 7 11 4 C13.31 4 15.62 4 18 4 C18 4.99 18 5.98 18 7 C17.34 7 16.68 7 16 7 C16 9.97 16 12.94 16 16 C17.98 15.67 19.96 15.34 22 15 C21.67 16.32 21.34 17.64 21 19 C14.73 19 8.46 19 2 19 C2 16.69 2 14.38 2 12 C0.35 12 -1.3 12 -3 12 C-3.93423645 15.01031744 -4.04449911 15.86650268 -3 19 C-5.31 19 -7.62 19 -10 19 C-10 18.34 -10 17.68 -10 17 C-9.37158203 16.41798828 -9.37158203 16.41798828 -8.73046875 15.82421875 C-6.23493765 13.19348958 -4.86693918 10.04794022 -3.3125 6.8125 C-2.83200195 5.83120117 -2.83200195 5.83120117 -2.34179688 4.83007812 C-1.55571708 3.22272093 -0.77711317 1.61171142 0 0 Z M-1 7 C-1.33 7.99 -1.66 8.98 -2 10 C-1.01 9.67 -0.02 9.34 1 9 C0.34 8.34 -0.32 7.68 -1 7 Z " fill="#002F56" transform="translate(179,243)"/>
<path d="M0 0 C3 1 3 1 3.91967773 2.82592773 C4.17177002 3.60395752 4.4238623 4.3819873 4.68359375 5.18359375 C4.97169922 6.02857422 5.25980469 6.87355469 5.55664062 7.74414062 C6.14234919 9.53503222 6.725696 11.326698 7.30664062 13.11914062 C7.59603516 13.96541016 7.88542969 14.81167969 8.18359375 15.68359375 C8.43681396 16.46275146 8.69003418 17.24190918 8.95092773 18.04467773 C10.24906511 20.46422212 11.48232954 21.02544942 14 22 C13.67 22.99 13.34 23.98 13 25 C9.7 25 6.4 25 3 25 C3 24.01 3 23.02 3 22 C3.66 22 4.32 22 5 22 C4.34 20.02 3.68 18.04 3 16 C-0.43793339 16.18129815 -0.43793339 16.18129815 -4 17 C-5.51294288 18.93597032 -5.51294288 18.93597032 -6 21 C-5.34 21.33 -4.68 21.66 -4 22 C-4.33 22.99 -4.66 23.98 -5 25 C-7.64 24.67 -10.28 24.34 -13 24 C-13 23.34 -13 22.68 -13 22 C-12.01 22 -11.02 22 -10 22 C-9.75507813 21.18273437 -9.51015625 20.36546875 -9.2578125 19.5234375 C-7.77452388 15.36838676 -5.88199051 11.54678711 -3.875 7.625 C-3.50246094 6.88894531 -3.12992187 6.15289062 -2.74609375 5.39453125 C-1.8343878 3.59449642 -0.91770068 1.79698598 0 0 Z M-1 7 C-1.33 8.65 -1.66 10.3 -2 12 C-1.01 12 -0.02 12 1 12 C0.67 10.35 0.34 8.7 0 7 C-0.33 7 -0.66 7 -1 7 Z " fill="#002E56" transform="translate(266,164)"/>
<path d="M0 0 C3.96 0 7.92 0 12 0 C12 0.66 12 1.32 12 2 C11.34 2 10.68 2 10 2 C11.32 3.98 12.64 5.96 14 8 C15.32 6.02 16.64 4.04 18 2 C17.34 2 16.68 2 16 2 C16 1.34 16 0.68 16 0 C19.3 0 22.6 0 26 0 C26 0.66 26 1.32 26 2 C25.11054688 2.36931641 25.11054688 2.36931641 24.203125 2.74609375 C20.16311265 5.04546248 17.95223722 8.8658506 16 13 C15.52832683 16.19582638 15.69054805 18.7507545 16 22 C16.99 22 17.98 22 19 22 C18.67 22.99 18.34 23.98 18 25 C14.7 25 11.4 25 8 25 C7.67 24.01 7.34 23.02 7 22 C7.99 21.67 8.98 21.34 10 21 C10.70941685 14.4970122 9.39562868 11.23507793 5.703125 5.8828125 C3.92321567 3.91511457 2.43382502 3.00527555 0 2 C0 1.34 0 0.68 0 0 Z " fill="#002E56" transform="translate(232,164)"/>
<path d="M0 0 C8.25 0 16.5 0 25 0 C25 2.31 25 4.62 25 7 C24.34 7 23.68 7 23 7 C23 6.34 23 5.68 23 5 C20.36 4.67 17.72 4.34 15 4 C15 10.27 15 16.54 15 23 C16.32 23.33 17.64 23.66 19 24 C18.34 24.66 17.68 25.32 17 26 C14.6171875 25.9765625 14.6171875 25.9765625 11.875 25.625 C10.96492187 25.51414063 10.05484375 25.40328125 9.1171875 25.2890625 C8.41851562 25.19367188 7.71984375 25.09828125 7 25 C7 24.34 7 23.68 7 23 C7.99 23 8.98 23 10 23 C10 16.73 10 10.46 10 4 C7.69 4.66 5.38 5.32 3 6 C2.01 6 1.02 6 0 6 C0 4.02 0 2.04 0 0 Z " fill="#002E56" transform="translate(143,163)"/>
<path d="M0 0 C3.63 0 7.26 0 11 0 C11 0.66 11 1.32 11 2 C10.01 2.495 10.01 2.495 9 3 C8.67 8.94 8.34 14.88 8 21 C10.64 21 13.28 21 16 21 C16 20.34 16 19.68 16 19 C16.99 19 17.98 19 19 19 C18.67 20.65 18.34 22.3 18 24 C12.06 24.33 6.12 24.66 0 25 C0 24.01 0 23.02 0 22 C0.99 22 1.98 22 3 22 C2.67 15.73 2.34 9.46 2 3 C1.34 2.67 0.68 2.34 0 2 C0 1.34 0 0.68 0 0 Z " fill="#002F56" transform="translate(281,164)"/>
<path d="M0 0 C5.08335725 0.15404113 7.35754718 3.02068432 10.64453125 6.50390625 C11.09183594 6.99761719 11.53914063 7.49132812 12 8 C12.08226668 4.95613276 11.97608217 2.92824652 11 0 C13.31 0 15.62 0 18 0 C17.67 0.99 17.34 1.98 17 3 C16.77548542 5.22574335 16.59217122 7.45581519 16.4375 9.6875 C16.35371094 10.86699219 16.26992187 12.04648438 16.18359375 13.26171875 C16.09271484 14.61716797 16.09271484 14.61716797 16 16 C11.70621187 14.07712966 9.22846299 11.37521131 6 8 C5.91773332 11.04386724 6.02391783 13.07175348 7 16 C4.69 16 2.38 16 0 16 C0 15.34 0 14.68 0 14 C0.66 14 1.32 14 2 14 C1.85866501 12.22880197 1.71176792 10.45804713 1.5625 8.6875 C1.48128906 7.70136719 1.40007812 6.71523437 1.31640625 5.69921875 C1.08187441 2.90624401 1.08187441 2.90624401 0 0 Z " fill="#002F56" transform="translate(106,198)"/>
<path d="M0 0 C2 1.25 2 1.25 3 3 C3 4.32 3 5.64 3 7 C0 6 0 6 -1.375 4.375 C-2.9720597 2.70651507 -2.9720597 2.70651507 -5.5625 3.125 C-8.3261611 3.84389168 -8.3261611 3.84389168 -10 7 C-9.91832511 10.57176115 -9.91832511 10.57176115 -9 14 C-5.5647952 16.29013653 -4.014669 16.17842973 0 16 C0.33 15.01 0.66 14.02 1 13 C1.66 13 2.32 13 3 13 C2.125 17.875 2.125 17.875 1 19 C-3.90599112 19.55419529 -7.78937787 19.74119722 -12.0625 17.125 C-14.32592782 14.64253077 -14.9214694 13.57589109 -15.375 10.25 C-14.8528401 5.7246142 -13.15770622 4.2328897 -10 1 C-6.81857548 -0.59071226 -3.46336466 -0.39662254 0 0 Z " fill="#002E56" transform="translate(66,243)"/>
<path d="M0 0 C2.64 0 5.28 0 8 0 C7.67 0.99 7.34 1.98 7 3 C6.93259135 4.56118428 6.91485544 6.1250252 6.9375 7.6875 C6.94652344 8.49574219 6.95554687 9.30398437 6.96484375 10.13671875 C6.97644531 10.75160156 6.98804687 11.36648437 7 12 C8.65 12 10.3 12 12 12 C12.02712066 10.56260487 12.04645067 9.12506137 12.0625 7.6875 C12.07410156 6.88699219 12.08570312 6.08648437 12.09765625 5.26171875 C12.09657855 2.83138666 12.09657855 2.83138666 11 0 C12.98 0 14.96 0 17 0 C17 2.96802614 16.66678652 5.6361246 16.1875 8.5625 C16.03667969 9.53316406 15.88585937 10.50382813 15.73046875 11.50390625 C15 14 15 14 12 16 C8.52075524 16.44415891 6.69082245 16.42943017 3.6875 14.5625 C1.58572959 11.3709227 1.39770023 8.88103528 1.17578125 5.12109375 C1.06864604 2.81127837 1.06864604 2.81127837 0 0 Z " fill="#002E56" transform="translate(87,198)"/>
<path d="M0 0 C3.40764114 -0.19659468 6.17210892 -0.32679911 9.375 0.9375 C11.9876086 4.25350323 12.29366767 7.85001208 12 12 C10.625 14.0625 10.625 14.0625 8 15 C4.98123999 15.21784866 2.01990917 15.17422553 -1 15 C-1 14.34 -1 13.68 -1 13 C-0.34 13 0.32 13 1 13 C0.9278125 12.31292969 0.855625 11.62585938 0.78125 10.91796875 C0.6884375 10.01691406 0.595625 9.11585938 0.5 8.1875 C0.4071875 7.29417969 0.314375 6.40085938 0.21875 5.48046875 C0 3 0 3 0 0 Z M5 3 C5 3.99 5 4.98 5 6 C5.66 6 6.32 6 7 6 C7 5.01 7 4.02 7 3 C6.34 3 5.68 3 5 3 Z M5 8 C5 9.32 5 10.64 5 12 C5.99 12 6.98 12 8 12 C7.67 10.68 7.34 9.36 7 8 C6.34 8 5.68 8 5 8 Z " fill="#002E56" transform="translate(203,247)"/>
<path d="M0 0 C2.375 1.5 2.375 1.5 4 3 C3.7525 3.9075 3.505 4.815 3.25 5.75 C3.1675 6.8225 3.085 7.895 3 9 C4.85432087 11.27144074 4.85432087 11.27144074 7 13 C7 13.66 7 14.32 7 15 C1.46153846 14.50769231 1.46153846 14.50769231 -0.875 11.9375 C-1.24625 11.298125 -1.6175 10.65875 -2 10 C-1.67 11.65 -1.34 13.3 -1 15 C-3.31 15 -5.62 15 -8 15 C-7.34 11.04 -6.68 7.08 -6 3 C-6.66 3 -7.32 3 -8 3 C-8 2.34 -8 1.68 -8 1 C-5.19084526 -0.40457737 -3.11189466 -0.24895157 0 0 Z M-3 3 C-3 4.32 -3 5.64 -3 7 C-2.01 6.67 -1.02 6.34 0 6 C0 5.01 0 4.02 0 3 C-0.99 3 -1.98 3 -3 3 Z " fill="#002E55" transform="translate(238,247)"/>
<path d="M0 0 C0.33 1.65 0.66 3.3 1 5 C0.01 5 -0.98 5 -2 5 C-2.33 4.34 -2.66 3.68 -3 3 C-4.65 3 -6.3 3 -8 3 C-8 5.31 -8 7.62 -8 10 C-5.525 10.99 -5.525 10.99 -3 12 C-3 11.01 -3 10.02 -3 9 C-3.66 9 -4.32 9 -5 9 C-5 8.01 -5 7.02 -5 6 C-2.69 6 -0.38 6 2 6 C1.74438677 8.3431213 1.40729228 10.67843403 1 13 C-2.20320397 14.60160199 -5.52426522 14.48770192 -9 14 C-11.5 12.375 -11.5 12.375 -13 10 C-13.50347322 6.54761218 -13.41556154 4.73217986 -11.6875 1.6875 C-8.08617999 -1.91382001 -4.63973446 -0.78787944 0 0 Z " fill="#002F56" transform="translate(112,248)"/>
<path d="M0 0 C3.63 0 7.26 0 11 0 C11.33 1.32 11.66 2.64 12 4 C9.03 3.505 9.03 3.505 6 3 C6 3.99 6 4.98 6 6 C7.32 5.67 8.64 5.34 10 5 C10.33 6.32 10.66 7.64 11 9 C10.01 9.495 10.01 9.495 9 10 C8.01 9.67 7.02 9.34 6 9 C6 9.99 6 10.98 6 12 C7.98 11.67 9.96 11.34 12 11 C12 12.32 12 13.64 12 15 C8.04 15 4.08 15 0 15 C0 14.34 0 13.68 0 13 C0.66 13 1.32 13 2 13 C1.85851011 11.3954444 1.71164314 9.79136233 1.5625 8.1875 C1.48128906 7.29417969 1.40007812 6.40085938 1.31640625 5.48046875 C1.06510233 2.87256441 1.06510233 2.87256441 0 0 Z " fill="#002E55" transform="translate(216,247)"/>
<path d="M0 0 C1.51400391 0.01740234 1.51400391 0.01740234 3.05859375 0.03515625 C4.07050781 0.04417969 5.08242187 0.05320313 6.125 0.0625 C7.29869141 0.07990234 7.29869141 0.07990234 8.49609375 0.09765625 C8.49609375 1.41765625 8.49609375 2.73765625 8.49609375 4.09765625 C5.52609375 3.60265625 5.52609375 3.60265625 2.49609375 3.09765625 C2.49609375 4.41765625 2.49609375 5.73765625 2.49609375 7.09765625 C4.14609375 6.76765625 5.79609375 6.43765625 7.49609375 6.09765625 C7.49609375 7.41765625 7.49609375 8.73765625 7.49609375 10.09765625 C5.84609375 9.76765625 4.19609375 9.43765625 2.49609375 9.09765625 C2.49609375 10.41765625 2.49609375 11.73765625 2.49609375 13.09765625 C5.96109375 12.60265625 5.96109375 12.60265625 9.49609375 12.09765625 C9.16609375 13.41765625 8.83609375 14.73765625 8.49609375 16.09765625 C4.53609375 16.09765625 0.57609375 16.09765625 -3.50390625 16.09765625 C-3.50390625 15.43765625 -3.50390625 14.77765625 -3.50390625 14.09765625 C-2.84390625 13.76765625 -2.18390625 13.43765625 -1.50390625 13.09765625 C-1.44995147 11.47301783 -1.4111343 9.84787084 -1.37890625 8.22265625 C-1.34410156 6.86527344 -1.34410156 6.86527344 -1.30859375 5.48046875 C-1.26065789 2.90958631 -1.26065789 2.90958631 -3.50390625 1.09765625 C-2.50390625 0.09765625 -2.50390625 0.09765625 0 0 Z " fill="#002E55" transform="translate(156.50390625,197.90234375)"/>
<path d="M0 0 C5.28 0 10.56 0 16 0 C16 1.32 16 2.64 16 4 C13.03 3.505 13.03 3.505 10 3 C10 6.63 10 10.26 10 14 C10.66 14 11.32 14 12 14 C12 14.66 12 15.32 12 16 C9.36 16 6.72 16 4 16 C4 15.34 4 14.68 4 14 C4.66 14 5.32 14 6 14 C6 10.37 6 6.74 6 3 C4.02 3.33 2.04 3.66 0 4 C0 2.68 0 1.36 0 0 Z " fill="#002E56" transform="translate(206,198)"/>
<path d="M0 0 C2.31 0 4.62 0 7 0 C7.144375 1.134375 7.28875 2.26875 7.4375 3.4375 C7.61171478 6.80777201 7.61171478 6.80777201 9 8 C10.47047336 4.08936776 10.47047336 4.08936776 11 0 C12.98 0 14.96 0 17 0 C14.33333333 5.33333333 11.66666667 10.66666667 9 16 C8.34 16 7.68 16 7 16 C5.82845707 13.71070947 4.66261926 11.41881638 3.5 9.125 C3.16613281 8.47402344 2.83226562 7.82304687 2.48828125 7.15234375 C0 2.2265625 0 2.2265625 0 0 Z " fill="#002E56" transform="translate(135,198)"/>
<path d="M0 0 C2.64 0 5.28 0 8 0 C8 1.32 8 2.64 8 4 C8.66 4.33 9.32 4.66 10 5 C10 3.35 10 1.7 10 0 C12.31 0 14.62 0 17 0 C17 0.66 17 1.32 17 2 C16.21625 2.721875 15.4325 3.44375 14.625 4.1875 C11.48151965 7.55551466 10.95256637 9.58355591 10 14 C10.66 14 11.32 14 12 14 C12 14.66 12 15.32 12 16 C9.69 16 7.38 16 5 16 C5.268125 14.783125 5.53625 13.56625 5.8125 12.3125 C6.17016825 10.12514359 6.17016825 10.12514359 6 8 C3.72889272 5.14515489 3.72889272 5.14515489 1 3 C0.67 2.01 0.34 1.02 0 0 Z " fill="#002E55" transform="translate(223,198)"/>
<path d="M0 0 C0.66 0 1.32 0 2 0 C2.33773438 0.85464844 2.67546875 1.70929688 3.0234375 2.58984375 C3.46945312 3.69457031 3.91546875 4.79929688 4.375 5.9375 C4.81585938 7.03964844 5.25671875 8.14179688 5.7109375 9.27734375 C6.71041432 12.11230186 6.71041432 12.11230186 9 13 C9 13.66 9 14.32 9 15 C6.36 15 3.72 15 1 15 C1.33 13.35 1.66 11.7 2 10 C0.68 10 -0.64 10 -2 10 C-1.67 11.65 -1.34 13.3 -1 15 C-2.98 15 -4.96 15 -7 15 C-5.63408831 11.45756548 -4.09068516 8.07372071 -2.375 4.6875 C-1.70597656 3.36298828 -1.70597656 3.36298828 -1.0234375 2.01171875 C-0.68570312 1.34785156 -0.34796875 0.68398437 0 0 Z " fill="#002E56" transform="translate(265,247)"/>
<path d="M0 0 C0.66 0 1.32 0 2 0 C2.81381795 1.93694678 3.62600916 3.87457711 4.4375 5.8125 C5.11619141 7.43091797 5.11619141 7.43091797 5.80859375 9.08203125 C6.60375013 11.0295126 7.33479648 13.00438943 8 15 C5.69 15 3.38 15 1 15 C1.33 13.35 1.66 11.7 2 10 C0.68 10 -0.64 10 -2 10 C-1.814375 10.639375 -1.62875 11.27875 -1.4375 11.9375 C-1.293125 12.618125 -1.14875 13.29875 -1 14 C-2 15 -2 15 -5.0625 15.0625 C-6.031875 15.041875 -7.00125 15.02125 -8 15 C-8 14.34 -8 13.68 -8 13 C-7.56042969 12.57074219 -7.12085937 12.14148438 -6.66796875 11.69921875 C-4.61047369 9.60317577 -3.5820098 7.45445283 -2.3125 4.8125 C-1.87550781 3.91144531 -1.43851562 3.01039063 -0.98828125 2.08203125 C-0.66214844 1.39496094 -0.33601563 0.70789063 0 0 Z " fill="#002F56" transform="translate(77,247)"/>
<path d="M0 0 C3.73487777 0.4979837 5.81237635 0.87491756 9 3 C9.86625 2.2265625 9.86625 2.2265625 10.75 1.4375 C13 0 13 0 15.25 0.3125 C15.8275 0.539375 16.405 0.76625 17 1 C16.67 1.66 16.34 2.32 16 3 C15.360625 3.20625 14.72125 3.4125 14.0625 3.625 C11.51406151 5.32395899 11.46138636 6.21803993 10.75 9.125 C10.5025 10.40375 10.255 11.6825 10 13 C10.66 13 11.32 13 12 13 C12 13.66 12 14.32 12 15 C9.36 15 6.72 15 4 15 C4 14.34 4 13.68 4 13 C4.66 13 5.32 13 6 13 C5.54177532 9.53058454 5.10868317 6.32604951 4 3 C2.68 3 1.36 3 0 3 C0 2.01 0 1.02 0 0 Z " fill="#002E56" transform="translate(144,247)"/>
<path d="M0 0 C1.63831442 3.62153714 2.20967902 5.33164812 1 9.1875 C-1.34149634 12.48022923 -3.25975205 13.56756462 -7 15 C-7.66 15 -8.32 15 -9 15 C-8.67 14.01 -8.34 13.02 -8 12 C-5.9375 11.3125 -5.9375 11.3125 -4 11 C-4 10.34 -4 9.68 -4 9 C-6.475 8.01 -6.475 8.01 -9 7 C-9.25 4.6875 -9.25 4.6875 -9 2 C-6.04897468 -1.27891703 -4.09533092 -1.25135112 0 0 Z M-5 2 C-5 3.32 -5 4.64 -5 6 C-4.01 6 -3.02 6 -2 6 C-2.33 4.68 -2.66 3.36 -3 2 C-3.66 2 -4.32 2 -5 2 Z " fill="#0075AB" transform="translate(158,224)"/>
<path d="M0 0 C2.64 0 5.28 0 8 0 C8 0.99 8 1.98 8 3 C7.34 3 6.68 3 6 3 C6 5.97 6 8.94 6 12 C7.98 11.67 9.96 11.34 12 11 C11.67 12.32 11.34 13.64 11 15 C7.37 15 3.74 15 0 15 C0 14.34 0 13.68 0 13 C0.66 13 1.32 13 2 13 C2 9.7 2 6.4 2 3 C1.34 3 0.68 3 0 3 C0 2.01 0 1.02 0 0 Z " fill="#002E56" transform="translate(86,247)"/>
<path d="M0 0 C4.95 0 9.9 0 15 0 C14.67 1.65 14.34 3.3 14 5 C11.525 4.01 11.525 4.01 9 3 C9.14168137 4.43791516 9.28851043 5.8753237 9.4375 7.3125 C9.51871094 8.11300781 9.59992188 8.91351563 9.68359375 9.73828125 C9.95265693 12.16087179 9.95265693 12.16087179 11 15 C8.69 15 6.38 15 4 15 C4.66 11.04 5.32 7.08 6 3 C4.02 3.66 2.04 4.32 0 5 C0 3.35 0 1.7 0 0 Z " fill="#002E55" transform="translate(244,247)"/>
<path d="M0 0 C2.99773701 1.15297577 4.00312605 2.0687521 5.4375 4.9375 C5.35946617 8.13688696 4.87495759 9.46879544 2.6875 11.8125 C0.4375 12.9375 0.4375 12.9375 -2.125 12.875 C-5.12273701 11.72202423 -6.12812605 10.8062479 -7.5625 7.9375 C-7.48446617 4.73811304 -6.99995759 3.40620456 -4.8125 1.0625 C-2.5625 -0.0625 -2.5625 -0.0625 0 0 Z M-2.5625 2.9375 C-3.85883621 4.00395115 -3.85883621 4.00395115 -3.625 6.5 C-3.604375 7.304375 -3.58375 8.10875 -3.5625 8.9375 C-1.61646726 9.52820014 -1.61646726 9.52820014 0.4375 9.9375 C1.73383621 8.87104885 1.73383621 8.87104885 1.5 6.375 C1.479375 5.570625 1.45875 4.76625 1.4375 3.9375 C-0.50853274 3.34679986 -0.50853274 3.34679986 -2.5625 2.9375 Z " fill="#0075AB" transform="translate(177.5625,223.0625)"/>
<path d="M0 0 C1.134375 0.020625 2.26875 0.04125 3.4375 0.0625 C3.1075 1.0525 2.7775 2.0425 2.4375 3.0625 C2.21570215 4.95462737 2.03135985 6.85134472 1.875 8.75 C1.79121094 9.74386719 1.70742187 10.73773438 1.62109375 11.76171875 C1.56050781 12.52097656 1.49992188 13.28023437 1.4375 14.0625 C2.0975 14.0625 2.7575 14.0625 3.4375 14.0625 C3.4375 14.7225 3.4375 15.3825 3.4375 16.0625 C1.1275 16.0625 -1.1825 16.0625 -3.5625 16.0625 C-3.8925 15.4025 -4.2225 14.7425 -4.5625 14.0625 C-3.9025 14.0625 -3.2425 14.0625 -2.5625 14.0625 C-2.5625 10.1025 -2.5625 6.1425 -2.5625 2.0625 C-3.2225 1.7325 -3.8825 1.4025 -4.5625 1.0625 C-3.5625 0.0625 -3.5625 0.0625 0 0 Z " fill="#002E56" transform="translate(129.5625,197.9375)"/>
<path d="M0 0 C2.31 0 4.62 0 7 0 C6.67 0.99 6.34 1.98 6 3 C5.90691456 4.66458673 5.87003815 6.33281997 5.875 8 C5.87242187 8.86625 5.86984375 9.7325 5.8671875 10.625 C5.90405795 13.15011695 5.90405795 13.15011695 7 16 C4.69 16 2.38 16 0 16 C0 15.34 0 14.68 0 14 C0.66 14 1.32 14 2 14 C1.85866501 12.22880197 1.71176792 10.45804713 1.5625 8.6875 C1.48128906 7.70136719 1.40007812 6.71523437 1.31640625 5.69921875 C1.08187441 2.90624401 1.08187441 2.90624401 0 0 Z " fill="#002E56" transform="translate(197,198)"/>
<path d="M0 0 C2.31 0 4.62 0 7 0 C7 3.63 7 7.26 7 11 C4.69 11 2.38 11 0 11 C0 10.34 0 9.68 0 9 C0.66 9 1.32 9 2 9 C2 6.69 2 4.38 2 2 C1.34 2 0.68 2 0 2 C0 1.34 0 0.68 0 0 Z " fill="#0076AD" transform="translate(161,224)"/>
<path d="M0 0 C2.31 0 4.62 0 7 0 C7 0.66 7 1.32 7 2 C6.34 2 5.68 2 5 2 C5 4.31 5 6.62 5 9 C5.66 9 6.32 9 7 9 C7 9.66 7 10.32 7 11 C4.69 11 2.38 11 0 11 C0 10.34 0 9.68 0 9 C0.66 9 1.32 9 2 9 C2 6.69 2 4.38 2 2 C1.34 2 0.68 2 0 2 C0 1.34 0 0.68 0 0 Z " fill="#0077AD" transform="translate(140,224)"/>
<path d="M0 0 C1.32 0 2.64 0 4 0 C4.33 0.99 4.66 1.98 5 3 C4.67 3.66 4.34 4.32 4 5 C2.68 4.67 1.36 4.34 0 4 C0 2.68 0 1.36 0 0 Z " fill="#002E55" transform="translate(158,259)"/>
</svg>
